%TF.GenerationSoftware,Altium Limited,Altium Designer,21.4.1 (30)*%
G04 Layer_Physical_Order=3*
G04 Layer_Color=128*
%FSLAX26Y26*%
%MOIN*%
%TF.SameCoordinates,1A054405-282A-4FF3-8963-BB1B344CA64D*%
%TF.FilePolarity,Negative*%
%TF.FileFunction,Copper,L3,Inr,Plane*%
%TF.Part,Single*%
G01*
G75*
%TA.AperFunction,NonConductor*%
%ADD29C,0.010000*%
%ADD30C,0.040000*%
%TA.AperFunction,ViaPad*%
%ADD31C,0.133858*%
%ADD32C,0.047244*%
G04:AMPARAMS|DCode=33|XSize=67.874mil|YSize=67.874mil|CornerRadius=0mil|HoleSize=0mil|Usage=FLASHONLY|Rotation=0.000|XOffset=0mil|YOffset=0mil|HoleType=Round|Shape=Relief|Width=10mil|Gap=10mil|Entries=4|*
%AMTHD33*
7,0,0,0.067874,0.047874,0.010000,45*
%
%ADD33THD33*%
D29*
X1527560Y1314961D02*
Y1377952D01*
X250492Y711221D02*
Y787401D01*
Y711221D02*
X421260D01*
X1279528Y503937D02*
Y618109D01*
X1279528Y503937D02*
X1279528Y503937D01*
X23622Y503937D02*
X1279528D01*
X19685Y500000D02*
X23622Y503937D01*
X19685Y500000D02*
Y787401D01*
X19685Y787401D01*
X250492D01*
X885827Y708661D02*
X964566D01*
X964566Y708661D02*
Y811023D01*
X460630Y661417D02*
X724410D01*
X460630Y566929D02*
Y661417D01*
X724410D02*
Y811023D01*
X929134Y661417D02*
X1015748D01*
X929134Y566929D02*
Y661417D01*
X1015748D02*
Y811023D01*
X885827Y566929D02*
X929134D01*
X885827Y566929D02*
Y708661D01*
X1279528Y618109D02*
X1527560Y618111D01*
X1279528Y618109D02*
Y811023D01*
X1527560Y618111D02*
Y814961D01*
X421260Y711221D02*
X669290D01*
X421260Y566929D02*
Y711221D01*
X669290D02*
Y811023D01*
X1015748D02*
X1251968D01*
Y708661D02*
Y811023D01*
X1125984Y708661D02*
X1251968D01*
X1125984Y566929D02*
Y708661D01*
X1165354Y661417D02*
X1279528D01*
X1165354Y566929D02*
Y661417D01*
X1125984Y566929D02*
X1165354D01*
X1279528Y811023D02*
Y1051181D01*
X421260Y566929D02*
X460630D01*
X429134Y811023D02*
X669290D01*
X724410D02*
Y1125985D01*
Y811023D02*
X964566D01*
X724410Y1125985D02*
X755906D01*
X429134Y1204725D02*
X503938D01*
X1205708Y1051181D02*
X1279528D01*
X1015748D02*
X1065944D01*
X1205708D01*
X1015748Y811023D02*
Y1051181D01*
X1527560Y1204725D02*
Y1314961D01*
X1448818D02*
X1527560D01*
X1338582Y1204725D02*
X1448818Y1314961D01*
X503938Y1204725D02*
X1338582D01*
X429134Y811023D02*
Y1204725D01*
X1433070Y1118111D02*
Y1204725D01*
X1527560D01*
Y1118111D02*
Y1204725D01*
X1370078Y1118111D02*
X1433070D01*
X1362204Y1125985D02*
X1370078Y1118111D01*
X755906Y1125985D02*
X1362204D01*
X1527560Y736221D02*
Y921259D01*
Y1023621D01*
X1370078Y1118111D02*
X1527560D01*
Y1023621D02*
Y1118111D01*
X1370078Y736221D02*
X1527560D01*
X1370078D02*
Y1118111D01*
D30*
X0Y0D02*
X1771653D01*
Y1377953D01*
X0D02*
X1771653D01*
X0Y0D02*
Y1377953D01*
D31*
X1338582Y1291339D02*
D03*
X86614D02*
D03*
X354330Y771653D02*
D03*
X1685040Y86615D02*
D03*
D32*
X598425Y645669D02*
D03*
X337598Y677167D02*
D03*
X952756Y621287D02*
D03*
X812008Y517990D02*
D03*
X863190Y677165D02*
D03*
X1303150Y476378D02*
D03*
X1331692Y677165D02*
D03*
X1432295Y606299D02*
D03*
X909448Y1043307D02*
D03*
X1103348Y677167D02*
D03*
X1282086Y1224409D02*
D03*
X389764Y1165354D02*
D03*
X757874Y687008D02*
D03*
X452756Y765921D02*
D03*
Y740331D02*
D03*
X757874Y114173D02*
D03*
X279528Y692913D02*
D03*
X354330Y1318897D02*
D03*
X1692914Y661417D02*
D03*
X795276Y740331D02*
D03*
X208858Y606299D02*
D03*
X1643085Y273623D02*
D03*
X1623114Y303149D02*
D03*
X855314Y105315D02*
D03*
X812008D02*
D03*
X855314Y148621D02*
D03*
X812008D02*
D03*
X872048Y51181D02*
D03*
X909646Y139763D02*
D03*
X1688976Y247046D02*
D03*
X1177165Y549213D02*
D03*
X1500128Y320867D02*
D03*
X1448818Y288385D02*
D03*
X629922Y763953D02*
D03*
X555118Y787575D02*
D03*
Y765921D02*
D03*
Y740331D02*
D03*
X503938Y763953D02*
D03*
Y787575D02*
D03*
X1522406Y139763D02*
D03*
X1591326Y190083D02*
D03*
X1724409Y440944D02*
D03*
X1688976Y212598D02*
D03*
X1643085Y200787D02*
D03*
X1507874D02*
D03*
X108858Y393701D02*
D03*
X341142D02*
D03*
X573426D02*
D03*
X1282086D02*
D03*
X208662Y1248031D02*
D03*
X354330Y1240157D02*
D03*
X232284Y887401D02*
D03*
X1452983Y410711D02*
D03*
X1652362Y379921D02*
D03*
X1602362D02*
D03*
X1523851Y440944D02*
D03*
X1739707Y536283D02*
D03*
X1493864Y624471D02*
D03*
X1702362Y379921D02*
D03*
X795276Y202755D02*
D03*
X806102Y259843D02*
D03*
X863190D02*
D03*
X1692914Y711221D02*
D03*
X1452983Y353625D02*
D03*
X1700788Y1063977D02*
D03*
X1692914Y1187599D02*
D03*
X1607511Y630906D02*
D03*
X1746203Y1287599D02*
D03*
X1692914Y1137599D02*
D03*
X1539370Y974409D02*
D03*
X1671260D02*
D03*
X996064Y606299D02*
D03*
X1070866Y273623D02*
D03*
X598284Y543307D02*
D03*
Y273623D02*
D03*
X809646Y393701D02*
D03*
X366142Y244095D02*
D03*
X232284Y1087401D02*
D03*
Y464986D02*
D03*
X185039Y736221D02*
D03*
X232284Y937401D02*
D03*
X118110Y736221D02*
D03*
X82677D02*
D03*
X47244D02*
D03*
X70866Y887401D02*
D03*
Y937401D02*
D03*
X47244Y464567D02*
D03*
X109254Y677167D02*
D03*
X70866Y1087401D02*
D03*
X1212796Y763953D02*
D03*
X921456D02*
D03*
X381890Y1027559D02*
D03*
X299212D02*
D03*
Y1003937D02*
D03*
Y1055117D02*
D03*
X326772Y1003937D02*
D03*
X354330Y1027559D02*
D03*
X503938Y1334645D02*
D03*
X354330Y1055119D02*
D03*
X326772D02*
D03*
X381890D02*
D03*
Y1003937D02*
D03*
X452756Y1279527D02*
D03*
Y1224409D02*
D03*
Y1307087D02*
D03*
Y1338579D02*
D03*
X326772Y1027559D02*
D03*
X354330Y1003937D02*
D03*
X250492Y255905D02*
D03*
X717008Y393371D02*
D03*
X452756Y1251969D02*
D03*
X1188976Y101377D02*
D03*
Y124999D02*
D03*
X716536Y66929D02*
D03*
Y41337D02*
D03*
Y114173D02*
D03*
Y161417D02*
D03*
Y185039D02*
D03*
Y208661D02*
D03*
Y346457D02*
D03*
Y370079D02*
D03*
Y320867D02*
D03*
X1188976Y259843D02*
D03*
Y322835D02*
D03*
Y393701D02*
D03*
Y370079D02*
D03*
Y346457D02*
D03*
Y236221D02*
D03*
Y55119D02*
D03*
Y212599D02*
D03*
Y78741D02*
D03*
Y188977D02*
D03*
X250492Y90551D02*
D03*
Y66929D02*
D03*
Y114173D02*
D03*
Y43307D02*
D03*
Y137795D02*
D03*
Y208661D02*
D03*
Y232283D02*
D03*
Y185039D02*
D03*
Y161417D02*
D03*
X1240158Y1224409D02*
D03*
Y1279527D02*
D03*
Y1307087D02*
D03*
Y1334645D02*
D03*
Y1251969D02*
D03*
X795276D02*
D03*
X846456D02*
D03*
X897638D02*
D03*
X1137796Y1334645D02*
D03*
X1035434D02*
D03*
X1086614D02*
D03*
X1188976D02*
D03*
X606300D02*
D03*
X657480D02*
D03*
X555118D02*
D03*
X657480Y1279527D02*
D03*
Y1307087D02*
D03*
Y1224409D02*
D03*
Y1251969D02*
D03*
X1035434Y1279527D02*
D03*
Y1307087D02*
D03*
Y1224409D02*
D03*
Y1251969D02*
D03*
X744094Y1279527D02*
D03*
Y1307087D02*
D03*
Y1224409D02*
D03*
Y1251969D02*
D03*
X948820D02*
D03*
Y1224409D02*
D03*
Y1307087D02*
D03*
Y1279527D02*
D03*
X846456Y1334645D02*
D03*
X744094D02*
D03*
X795276D02*
D03*
X948820D02*
D03*
X897638D02*
D03*
Y1307087D02*
D03*
Y1279527D02*
D03*
X846456D02*
D03*
Y1307087D02*
D03*
X795276D02*
D03*
Y1279527D02*
D03*
X1137796Y1224409D02*
D03*
X1188976D02*
D03*
X1086614D02*
D03*
Y1251969D02*
D03*
X1137796D02*
D03*
X1188976D02*
D03*
X1086614Y1279527D02*
D03*
X1137796Y1307087D02*
D03*
Y1279527D02*
D03*
X1188976D02*
D03*
Y1307087D02*
D03*
X1086614D02*
D03*
X555118Y1224409D02*
D03*
X606300D02*
D03*
X503938D02*
D03*
Y1251969D02*
D03*
X555118D02*
D03*
X606300D02*
D03*
X503938Y1279527D02*
D03*
Y1307087D02*
D03*
X555118D02*
D03*
Y1279527D02*
D03*
X606300D02*
D03*
Y1307087D02*
D03*
X1045866Y677167D02*
D03*
X809646D02*
D03*
X391142D02*
D03*
X629922Y1094489D02*
D03*
X759842Y606299D02*
D03*
X291142D02*
D03*
X299212Y929133D02*
D03*
X381890Y952755D02*
D03*
X354330Y929133D02*
D03*
X299212Y952755D02*
D03*
Y905511D02*
D03*
X326772Y952755D02*
D03*
Y905511D02*
D03*
X354330Y952755D02*
D03*
Y905511D02*
D03*
X381890D02*
D03*
Y929133D02*
D03*
X326772D02*
D03*
X673228Y606299D02*
D03*
X744094Y787401D02*
D03*
X503938Y740331D02*
D03*
X1381890Y606299D02*
D03*
X1035434Y787575D02*
D03*
Y765921D02*
D03*
Y740331D02*
D03*
X744094Y740157D02*
D03*
Y765747D02*
D03*
X452756Y787575D02*
D03*
X1137796Y765921D02*
D03*
X1086614Y787749D02*
D03*
Y740505D02*
D03*
X1137796Y787575D02*
D03*
Y740331D02*
D03*
X1086614Y764127D02*
D03*
X846456Y765747D02*
D03*
X795276Y787575D02*
D03*
X846456Y787401D02*
D03*
Y740157D02*
D03*
X795276Y763953D02*
D03*
X1045866Y393701D02*
D03*
D33*
X1232284Y606299D02*
D03*
X1129922Y543307D02*
D03*
X220472Y736221D02*
D03*
X522884Y606299D02*
D03*
X58858D02*
D03*
%TF.MD5,274273dd4c11094b82e1255414d0a261*%
M02*
