%TF.GenerationSoftware,Altium Limited,Altium Designer,21.4.1 (30)*%
G04 Layer_Color=128*
%FSLAX26Y26*%
%MOIN*%
%TF.SameCoordinates,1A054405-282A-4FF3-8963-BB1B344CA64D*%
%TF.FilePolarity,Positive*%
%TF.FileFunction,Drillmap*%
%TF.Part,Single*%
G01*
G75*
%TA.AperFunction,NonConductor*%
%ADD80C,0.005000*%
D80*
X1291338Y1291339D02*
X1385826D01*
X1338582Y1244095D02*
Y1338583D01*
X39370Y1291339D02*
X133858D01*
X86614Y1244095D02*
Y1338583D01*
X307086Y771653D02*
X401574D01*
X354330Y724409D02*
Y818897D01*
X1637796Y86615D02*
X1732284D01*
X1685040Y39371D02*
Y133859D01*
X594488Y645669D02*
X602362D01*
X598425Y641732D02*
Y649606D01*
X333661Y677167D02*
X341535D01*
X337598Y673230D02*
Y681104D01*
X948819Y621287D02*
X956693D01*
X952756Y617350D02*
Y625224D01*
X808071Y517990D02*
X815945D01*
X812008Y514053D02*
Y521927D01*
X859253Y677165D02*
X867127D01*
X863190Y673228D02*
Y681102D01*
X1299213Y476378D02*
X1307087D01*
X1303150Y472441D02*
Y480315D01*
X1327755Y677165D02*
X1335629D01*
X1331692Y673228D02*
Y681102D01*
X1428358Y606299D02*
X1436232D01*
X1432295Y602362D02*
Y610236D01*
X905511Y1043307D02*
X913385D01*
X909448Y1039370D02*
Y1047244D01*
X1099411Y677167D02*
X1107285D01*
X1103348Y673230D02*
Y681104D01*
X1278149Y1224409D02*
X1286023D01*
X1282086Y1220472D02*
Y1228346D01*
X385827Y1165354D02*
X393701D01*
X389764Y1161417D02*
Y1169291D01*
X753937Y687008D02*
X761811D01*
X757874Y683071D02*
Y690945D01*
X448819Y765921D02*
X456693D01*
X452756Y761984D02*
Y769858D01*
X448819Y740331D02*
X456693D01*
X452756Y736394D02*
Y744268D01*
X753937Y114173D02*
X761811D01*
X757874Y110236D02*
Y118110D01*
X275591Y692913D02*
X283465D01*
X279528Y688976D02*
Y696850D01*
X350393Y1318897D02*
X358267D01*
X354330Y1314960D02*
Y1322834D01*
X1688977Y661417D02*
X1696851D01*
X1692914Y657480D02*
Y665354D01*
X791339Y740331D02*
X799213D01*
X795276Y736394D02*
Y744268D01*
X204921Y606299D02*
X212795D01*
X208858Y602362D02*
Y610236D01*
X1228347Y606299D02*
X1236220D01*
X1232284Y602362D02*
Y610236D01*
X1480315Y811024D02*
X1488189D01*
X1484252Y807087D02*
Y814961D01*
X1433071Y763779D02*
X1440945D01*
X1437008Y759842D02*
Y767716D01*
X1409449Y763779D02*
X1417323D01*
X1413386Y759842D02*
Y767716D01*
X1456693Y787750D02*
X1464567D01*
X1460630Y783812D02*
Y791687D01*
X1433071Y787402D02*
X1440945D01*
X1437008Y783465D02*
Y791338D01*
X1433071Y811024D02*
X1440945D01*
X1437008Y807087D02*
Y814961D01*
X1409449Y811024D02*
X1417323D01*
X1413386Y807087D02*
Y814961D01*
X1409449Y787402D02*
X1417323D01*
X1413386Y783465D02*
Y791338D01*
X1456693Y811371D02*
X1464567D01*
X1460630Y807434D02*
Y815308D01*
X1480315Y763779D02*
X1488189D01*
X1484252Y759842D02*
Y767716D01*
X1480315Y787402D02*
X1488189D01*
X1484252Y783465D02*
Y791338D01*
X1456693Y764128D02*
X1464567D01*
X1460630Y760191D02*
Y768064D01*
X1639148Y273623D02*
X1647022D01*
X1643085Y269685D02*
Y277560D01*
X1619177Y303149D02*
X1627051D01*
X1623114Y299212D02*
Y307086D01*
X1503937Y244094D02*
X1511811D01*
X1507874Y240157D02*
Y248031D01*
X851377Y105315D02*
X859251D01*
X855314Y101378D02*
Y109252D01*
X808071Y105315D02*
X815945D01*
X812008Y101378D02*
Y109252D01*
X851377Y148621D02*
X859251D01*
X855314Y144684D02*
Y152558D01*
X808071Y148621D02*
X815945D01*
X812008Y144684D02*
Y152558D01*
X868111Y51181D02*
X875985D01*
X872048Y47244D02*
Y55118D01*
X905709Y139763D02*
X913583D01*
X909646Y135826D02*
Y143700D01*
X948819Y90551D02*
X956693D01*
X952756Y86614D02*
Y94488D01*
X1685039Y247046D02*
X1692913D01*
X1688976Y243109D02*
Y250983D01*
X1125985Y543307D02*
X1133859D01*
X1129922Y539370D02*
Y547244D01*
X1173228Y549213D02*
X1181102D01*
X1177165Y545276D02*
Y553150D01*
X1496191Y320867D02*
X1504065D01*
X1500128Y316930D02*
Y324804D01*
X1444881Y288385D02*
X1452755D01*
X1448818Y284448D02*
Y292322D01*
X625985Y763953D02*
X633859D01*
X629922Y760016D02*
Y767890D01*
X551181Y787575D02*
X559055D01*
X555118Y783638D02*
Y791512D01*
X551181Y765921D02*
X559055D01*
X555118Y761984D02*
Y769858D01*
X551181Y740331D02*
X559055D01*
X555118Y736394D02*
Y744268D01*
X500001Y763953D02*
X507875D01*
X503938Y760016D02*
Y767890D01*
X500001Y787575D02*
X507875D01*
X503938Y783638D02*
Y791512D01*
X1518469Y139763D02*
X1526343D01*
X1522406Y135826D02*
Y143700D01*
X1461383Y139763D02*
X1469257D01*
X1465320Y135826D02*
Y143700D01*
X1587389Y190083D02*
X1595263D01*
X1591326Y186146D02*
Y194020D01*
X1720472Y440944D02*
X1728346D01*
X1724409Y437007D02*
Y444881D01*
X1685039Y212598D02*
X1692913D01*
X1688976Y208661D02*
Y216535D01*
X1639148Y200787D02*
X1647022D01*
X1643085Y196850D02*
Y204724D01*
X1503937Y200787D02*
X1511811D01*
X1507874Y196850D02*
Y204724D01*
X104921Y393701D02*
X112795D01*
X108858Y389764D02*
Y397638D01*
X337205Y393701D02*
X345079D01*
X341142Y389764D02*
Y397638D01*
X569489Y393701D02*
X577363D01*
X573426Y389764D02*
Y397638D01*
X1278149Y393701D02*
X1286023D01*
X1282086Y389764D02*
Y397638D01*
X204725Y1248031D02*
X212599D01*
X208662Y1244094D02*
Y1251968D01*
X350393Y1240157D02*
X358267D01*
X354330Y1236220D02*
Y1244094D01*
X228347Y887401D02*
X236221D01*
X232284Y883464D02*
Y891338D01*
X1449045Y410711D02*
X1456919D01*
X1452983Y406774D02*
Y414648D01*
X1648425Y379921D02*
X1656299D01*
X1652362Y375984D02*
Y383858D01*
X1598425Y379921D02*
X1606299D01*
X1602362Y375984D02*
Y383858D01*
X1519914Y440944D02*
X1527788D01*
X1523851Y437007D02*
Y444881D01*
X1735770Y536283D02*
X1743644D01*
X1739707Y532346D02*
Y540220D01*
X1489927Y624471D02*
X1497801D01*
X1493864Y620534D02*
Y628408D01*
X1698425Y379921D02*
X1706299D01*
X1702362Y375984D02*
Y383858D01*
X791339Y202755D02*
X799213D01*
X795276Y198818D02*
Y206692D01*
X802165Y259843D02*
X810039D01*
X806102Y255906D02*
Y263780D01*
X859253Y259843D02*
X867127D01*
X863190Y255906D02*
Y263780D01*
X1688977Y711221D02*
X1696851D01*
X1692914Y707284D02*
Y715158D01*
X1449045Y353625D02*
X1456919D01*
X1452983Y349688D02*
Y357562D01*
X1696851Y1063977D02*
X1704725D01*
X1700788Y1060040D02*
Y1067914D01*
X1688977Y1187599D02*
X1696851D01*
X1692914Y1183662D02*
Y1191536D01*
X1603574Y630906D02*
X1611448D01*
X1607511Y626969D02*
Y634843D01*
X1742266Y1287599D02*
X1750140D01*
X1746203Y1283662D02*
Y1291536D01*
X1688977Y1137599D02*
X1696851D01*
X1692914Y1133662D02*
Y1141536D01*
X1535433Y974409D02*
X1543307D01*
X1539370Y970472D02*
Y978346D01*
X1578741Y974409D02*
X1586615D01*
X1582678Y970472D02*
Y978346D01*
X1667323Y974409D02*
X1675197D01*
X1671260Y970472D02*
Y978346D01*
X1141733Y606299D02*
X1149607D01*
X1145670Y602362D02*
Y610236D01*
X992127Y606299D02*
X1000001D01*
X996064Y602362D02*
Y610236D01*
X1066929Y273623D02*
X1074803D01*
X1070866Y269685D02*
Y277560D01*
X1066929Y237207D02*
X1074803D01*
X1070866Y233270D02*
Y241144D01*
X1066929Y58073D02*
X1074803D01*
X1070866Y54136D02*
Y62010D01*
X594347Y543307D02*
X602221D01*
X598284Y539370D02*
Y547244D01*
X594347Y273623D02*
X602221D01*
X598284Y269685D02*
Y277560D01*
X805709Y393701D02*
X813583D01*
X809646Y389764D02*
Y397638D01*
X362205Y244095D02*
X370079D01*
X366142Y240157D02*
Y248031D01*
X228347Y1087401D02*
X236221D01*
X232284Y1083464D02*
Y1091338D01*
X228347Y464986D02*
X236221D01*
X232284Y461049D02*
Y468923D01*
X216535Y736221D02*
X224409D01*
X220472Y732284D02*
Y740158D01*
X181102Y736221D02*
X188976D01*
X185039Y732284D02*
Y740158D01*
X228347Y937401D02*
X236221D01*
X232284Y933464D02*
Y941338D01*
X114173Y736221D02*
X122047D01*
X118110Y732284D02*
Y740158D01*
X78740Y736221D02*
X86614D01*
X82677Y732284D02*
Y740158D01*
X43307Y736221D02*
X51181D01*
X47244Y732284D02*
Y740158D01*
X66929Y887401D02*
X74803D01*
X70866Y883464D02*
Y891338D01*
X66929Y937401D02*
X74803D01*
X70866Y933464D02*
Y941338D01*
X43307Y464567D02*
X51181D01*
X47244Y460630D02*
Y468504D01*
X105317Y677167D02*
X113191D01*
X109254Y673230D02*
Y681104D01*
X518947Y606299D02*
X526821D01*
X522884Y602362D02*
Y610236D01*
X54921Y606299D02*
X62795D01*
X58858Y602362D02*
Y610236D01*
X66929Y1087401D02*
X74803D01*
X70866Y1083464D02*
Y1091338D01*
X1208859Y763953D02*
X1216733D01*
X1212796Y760016D02*
Y767890D01*
X917519Y763953D02*
X925393D01*
X921456Y760016D02*
Y767890D01*
X377953Y1027559D02*
X385827D01*
X381890Y1023622D02*
Y1031496D01*
X295275Y1027559D02*
X303149D01*
X299212Y1023622D02*
Y1031496D01*
X295275Y1003937D02*
X303149D01*
X299212Y1000000D02*
Y1007874D01*
X295275Y1055117D02*
X303149D01*
X299212Y1051180D02*
Y1059054D01*
X322835Y1003937D02*
X330709D01*
X326772Y1000000D02*
Y1007874D01*
X350393Y1027559D02*
X358267D01*
X354330Y1023622D02*
Y1031496D01*
X500001Y1334645D02*
X507875D01*
X503938Y1330708D02*
Y1338582D01*
X350393Y1055119D02*
X358267D01*
X354330Y1051182D02*
Y1059056D01*
X322835Y1055119D02*
X330709D01*
X326772Y1051182D02*
Y1059056D01*
X377953Y1055119D02*
X385827D01*
X381890Y1051182D02*
Y1059056D01*
X377953Y1003937D02*
X385827D01*
X381890Y1000000D02*
Y1007874D01*
X448819Y1279527D02*
X456693D01*
X452756Y1275590D02*
Y1283464D01*
X448819Y1224409D02*
X456693D01*
X452756Y1220472D02*
Y1228346D01*
X448819Y1307087D02*
X456693D01*
X452756Y1303150D02*
Y1311024D01*
X448819Y1338579D02*
X456693D01*
X452756Y1334642D02*
Y1342516D01*
X322835Y1027559D02*
X330709D01*
X326772Y1023622D02*
Y1031496D01*
X350393Y1003937D02*
X358267D01*
X354330Y1000000D02*
Y1007874D01*
X246555Y255905D02*
X254429D01*
X250492Y251968D02*
Y259842D01*
X713071Y393371D02*
X720945D01*
X717008Y389434D02*
Y397308D01*
X448819Y1251969D02*
X456693D01*
X452756Y1248032D02*
Y1255906D01*
X1185039Y101377D02*
X1192913D01*
X1188976Y97440D02*
Y105314D01*
X1185039Y124999D02*
X1192913D01*
X1188976Y121062D02*
Y128936D01*
X712599Y66929D02*
X720473D01*
X716536Y62992D02*
Y70866D01*
X712599Y41337D02*
X720473D01*
X716536Y37400D02*
Y45274D01*
X712599Y114173D02*
X720473D01*
X716536Y110236D02*
Y118110D01*
X712599Y161417D02*
X720473D01*
X716536Y157480D02*
Y165354D01*
X712599Y185039D02*
X720473D01*
X716536Y181102D02*
Y188976D01*
X712599Y208661D02*
X720473D01*
X716536Y204724D02*
Y212598D01*
X712599Y346457D02*
X720473D01*
X716536Y342520D02*
Y350394D01*
X712599Y370079D02*
X720473D01*
X716536Y366142D02*
Y374016D01*
X712599Y320867D02*
X720473D01*
X716536Y316930D02*
Y324804D01*
X1185039Y259843D02*
X1192913D01*
X1188976Y255906D02*
Y263780D01*
X1185039Y322835D02*
X1192913D01*
X1188976Y318898D02*
Y326772D01*
X1185039Y393701D02*
X1192913D01*
X1188976Y389764D02*
Y397638D01*
X1185039Y370079D02*
X1192913D01*
X1188976Y366142D02*
Y374016D01*
X1185039Y346457D02*
X1192913D01*
X1188976Y342520D02*
Y350394D01*
X1185039Y236221D02*
X1192913D01*
X1188976Y232284D02*
Y240158D01*
X1185039Y55119D02*
X1192913D01*
X1188976Y51182D02*
Y59056D01*
X1185039Y212599D02*
X1192913D01*
X1188976Y208662D02*
Y216536D01*
X1185039Y78741D02*
X1192913D01*
X1188976Y74804D02*
Y82678D01*
X1185039Y188977D02*
X1192913D01*
X1188976Y185040D02*
Y192914D01*
X246555Y90551D02*
X254429D01*
X250492Y86614D02*
Y94488D01*
X246555Y66929D02*
X254429D01*
X250492Y62992D02*
Y70866D01*
X246555Y114173D02*
X254429D01*
X250492Y110236D02*
Y118110D01*
X246555Y43307D02*
X254429D01*
X250492Y39370D02*
Y47244D01*
X246555Y137795D02*
X254429D01*
X250492Y133858D02*
Y141732D01*
X246555Y208661D02*
X254429D01*
X250492Y204724D02*
Y212598D01*
X246555Y232283D02*
X254429D01*
X250492Y228346D02*
Y236220D01*
X246555Y185039D02*
X254429D01*
X250492Y181102D02*
Y188976D01*
X246555Y161417D02*
X254429D01*
X250492Y157480D02*
Y165354D01*
X1236221Y1224409D02*
X1244095D01*
X1240158Y1220472D02*
Y1228346D01*
X1236221Y1279527D02*
X1244095D01*
X1240158Y1275590D02*
Y1283464D01*
X1236221Y1307087D02*
X1244095D01*
X1240158Y1303150D02*
Y1311024D01*
X1236221Y1334645D02*
X1244095D01*
X1240158Y1330708D02*
Y1338582D01*
X1236221Y1251969D02*
X1244095D01*
X1240158Y1248032D02*
Y1255906D01*
X791339Y1251969D02*
X799213D01*
X795276Y1248032D02*
Y1255906D01*
X842519Y1251969D02*
X850393D01*
X846456Y1248032D02*
Y1255906D01*
X893701Y1251969D02*
X901575D01*
X897638Y1248032D02*
Y1255906D01*
X1133859Y1334645D02*
X1141733D01*
X1137796Y1330708D02*
Y1338582D01*
X1031497Y1334645D02*
X1039371D01*
X1035434Y1330708D02*
Y1338582D01*
X1082677Y1334645D02*
X1090551D01*
X1086614Y1330708D02*
Y1338582D01*
X1185039Y1334645D02*
X1192913D01*
X1188976Y1330708D02*
Y1338582D01*
X602363Y1334645D02*
X610237D01*
X606300Y1330708D02*
Y1338582D01*
X653543Y1334645D02*
X661417D01*
X657480Y1330708D02*
Y1338582D01*
X551181Y1334645D02*
X559055D01*
X555118Y1330708D02*
Y1338582D01*
X653543Y1279527D02*
X661417D01*
X657480Y1275590D02*
Y1283464D01*
X653543Y1307087D02*
X661417D01*
X657480Y1303150D02*
Y1311024D01*
X653543Y1224409D02*
X661417D01*
X657480Y1220472D02*
Y1228346D01*
X653543Y1251969D02*
X661417D01*
X657480Y1248032D02*
Y1255906D01*
X1031497Y1279527D02*
X1039371D01*
X1035434Y1275590D02*
Y1283464D01*
X1031497Y1307087D02*
X1039371D01*
X1035434Y1303150D02*
Y1311024D01*
X1031497Y1224409D02*
X1039371D01*
X1035434Y1220472D02*
Y1228346D01*
X1031497Y1251969D02*
X1039371D01*
X1035434Y1248032D02*
Y1255906D01*
X740157Y1279527D02*
X748031D01*
X744094Y1275590D02*
Y1283464D01*
X740157Y1307087D02*
X748031D01*
X744094Y1303150D02*
Y1311024D01*
X740157Y1224409D02*
X748031D01*
X744094Y1220472D02*
Y1228346D01*
X740157Y1251969D02*
X748031D01*
X744094Y1248032D02*
Y1255906D01*
X944883Y1251969D02*
X952757D01*
X948820Y1248032D02*
Y1255906D01*
X944883Y1224409D02*
X952757D01*
X948820Y1220472D02*
Y1228346D01*
X944883Y1307087D02*
X952757D01*
X948820Y1303150D02*
Y1311024D01*
X944883Y1279527D02*
X952757D01*
X948820Y1275590D02*
Y1283464D01*
X842519Y1334645D02*
X850393D01*
X846456Y1330708D02*
Y1338582D01*
X740157Y1334645D02*
X748031D01*
X744094Y1330708D02*
Y1338582D01*
X791339Y1334645D02*
X799213D01*
X795276Y1330708D02*
Y1338582D01*
X944883Y1334645D02*
X952757D01*
X948820Y1330708D02*
Y1338582D01*
X893701Y1334645D02*
X901575D01*
X897638Y1330708D02*
Y1338582D01*
X893701Y1307087D02*
X901575D01*
X897638Y1303150D02*
Y1311024D01*
X893701Y1279527D02*
X901575D01*
X897638Y1275590D02*
Y1283464D01*
X842519Y1279527D02*
X850393D01*
X846456Y1275590D02*
Y1283464D01*
X842519Y1307087D02*
X850393D01*
X846456Y1303150D02*
Y1311024D01*
X791339Y1307087D02*
X799213D01*
X795276Y1303150D02*
Y1311024D01*
X791339Y1279527D02*
X799213D01*
X795276Y1275590D02*
Y1283464D01*
X1133859Y1224409D02*
X1141733D01*
X1137796Y1220472D02*
Y1228346D01*
X1185039Y1224409D02*
X1192913D01*
X1188976Y1220472D02*
Y1228346D01*
X1082677Y1224409D02*
X1090551D01*
X1086614Y1220472D02*
Y1228346D01*
X1082677Y1251969D02*
X1090551D01*
X1086614Y1248032D02*
Y1255906D01*
X1133859Y1251969D02*
X1141733D01*
X1137796Y1248032D02*
Y1255906D01*
X1185039Y1251969D02*
X1192913D01*
X1188976Y1248032D02*
Y1255906D01*
X1082677Y1279527D02*
X1090551D01*
X1086614Y1275590D02*
Y1283464D01*
X1133859Y1307087D02*
X1141733D01*
X1137796Y1303150D02*
Y1311024D01*
X1133859Y1279527D02*
X1141733D01*
X1137796Y1275590D02*
Y1283464D01*
X1185039Y1279527D02*
X1192913D01*
X1188976Y1275590D02*
Y1283464D01*
X1185039Y1307087D02*
X1192913D01*
X1188976Y1303150D02*
Y1311024D01*
X1082677Y1307087D02*
X1090551D01*
X1086614Y1303150D02*
Y1311024D01*
X551181Y1224409D02*
X559055D01*
X555118Y1220472D02*
Y1228346D01*
X602363Y1224409D02*
X610237D01*
X606300Y1220472D02*
Y1228346D01*
X500001Y1224409D02*
X507875D01*
X503938Y1220472D02*
Y1228346D01*
X500001Y1251969D02*
X507875D01*
X503938Y1248032D02*
Y1255906D01*
X551181Y1251969D02*
X559055D01*
X555118Y1248032D02*
Y1255906D01*
X602363Y1251969D02*
X610237D01*
X606300Y1248032D02*
Y1255906D01*
X500001Y1279527D02*
X507875D01*
X503938Y1275590D02*
Y1283464D01*
X500001Y1307087D02*
X507875D01*
X503938Y1303150D02*
Y1311024D01*
X551181Y1307087D02*
X559055D01*
X555118Y1303150D02*
Y1311024D01*
X551181Y1279527D02*
X559055D01*
X555118Y1275590D02*
Y1283464D01*
X602363Y1279527D02*
X610237D01*
X606300Y1275590D02*
Y1283464D01*
X602363Y1307087D02*
X610237D01*
X606300Y1303150D02*
Y1311024D01*
X1236222Y952755D02*
X1244096D01*
X1240159Y948818D02*
Y956692D01*
X1236222Y917323D02*
X1244096D01*
X1240159Y913386D02*
Y921260D01*
X1236222Y846457D02*
X1244096D01*
X1240159Y842520D02*
Y850394D01*
X1236222Y881889D02*
X1244096D01*
X1240159Y877952D02*
Y885826D01*
X1236222Y1023621D02*
X1244096D01*
X1240159Y1019684D02*
Y1027558D01*
X1236222Y988189D02*
X1244096D01*
X1240159Y984252D02*
Y992126D01*
X1185040Y988189D02*
X1192914D01*
X1188977Y984252D02*
Y992126D01*
X1185040Y881889D02*
X1192914D01*
X1188977Y877952D02*
Y885826D01*
X1185040Y846457D02*
X1192914D01*
X1188977Y842520D02*
Y850394D01*
X1185040Y917323D02*
X1192914D01*
X1188977Y913386D02*
Y921260D01*
X1185040Y952755D02*
X1192914D01*
X1188977Y948818D02*
Y956692D01*
X1133860Y988189D02*
X1141734D01*
X1137797Y984252D02*
Y992126D01*
X1133860Y881889D02*
X1141734D01*
X1137797Y877952D02*
Y885826D01*
X1133860Y846457D02*
X1141734D01*
X1137797Y842520D02*
Y850394D01*
X1133860Y917323D02*
X1141734D01*
X1137797Y913386D02*
Y921260D01*
X1133860Y952755D02*
X1141734D01*
X1137797Y948818D02*
Y956692D01*
X1082678Y988189D02*
X1090552D01*
X1086615Y984252D02*
Y992126D01*
X1082678Y881889D02*
X1090552D01*
X1086615Y877952D02*
Y885826D01*
X1082678Y846457D02*
X1090552D01*
X1086615Y842520D02*
Y850394D01*
X1082678Y917323D02*
X1090552D01*
X1086615Y913386D02*
Y921260D01*
X1082678Y952755D02*
X1090552D01*
X1086615Y948818D02*
Y956692D01*
X1031498Y952755D02*
X1039372D01*
X1035435Y948818D02*
Y956692D01*
X1031498Y917323D02*
X1039372D01*
X1035435Y913386D02*
Y921260D01*
X1031498Y846457D02*
X1039372D01*
X1035435Y842520D02*
Y850394D01*
X1031498Y881889D02*
X1039372D01*
X1035435Y877952D02*
Y885826D01*
X1031498Y1023621D02*
X1039372D01*
X1035435Y1019684D02*
Y1027558D01*
X1031498Y988189D02*
X1039372D01*
X1035435Y984252D02*
Y992126D01*
X905511Y606299D02*
X913385D01*
X909448Y602362D02*
Y610236D01*
X893702Y988189D02*
X901576D01*
X897639Y984252D02*
Y992126D01*
X791340Y988189D02*
X799214D01*
X795277Y984252D02*
Y992126D01*
X842520Y988189D02*
X850394D01*
X846457Y984252D02*
Y992126D01*
X791339Y1102363D02*
X799213D01*
X795276Y1098426D02*
Y1106300D01*
X842519Y1102363D02*
X850393D01*
X846456Y1098426D02*
Y1106300D01*
X1417323Y708661D02*
X1425197D01*
X1421260Y704724D02*
Y712598D01*
X1417323Y661417D02*
X1425197D01*
X1421260Y657480D02*
Y665354D01*
X1440945Y708661D02*
X1448819D01*
X1444882Y704724D02*
Y712598D01*
X1464567Y685039D02*
X1472441D01*
X1468504Y681102D02*
Y688976D01*
X1488189Y661417D02*
X1496063D01*
X1492126Y657480D02*
Y665354D01*
X1440945Y661417D02*
X1448819D01*
X1444882Y657480D02*
Y665354D01*
X1417323Y685039D02*
X1425197D01*
X1421260Y681102D02*
Y688976D01*
X1440945Y685039D02*
X1448819D01*
X1444882Y681102D02*
Y688976D01*
X1464567Y661417D02*
X1472441D01*
X1468504Y657480D02*
Y665354D01*
X1488189Y685039D02*
X1496063D01*
X1492126Y681102D02*
Y688976D01*
X1488189Y708661D02*
X1496063D01*
X1492126Y704724D02*
Y712598D01*
X1464567Y708661D02*
X1472441D01*
X1468504Y704724D02*
Y712598D01*
X740157Y1102363D02*
X748031D01*
X744094Y1098426D02*
Y1106300D01*
X740157Y1078741D02*
X748031D01*
X744094Y1074804D02*
Y1082678D01*
X740158Y988189D02*
X748032D01*
X744095Y984252D02*
Y992126D01*
X740158Y881889D02*
X748032D01*
X744095Y877952D02*
Y885826D01*
X740158Y846457D02*
X748032D01*
X744095Y842520D02*
Y850394D01*
X740158Y917323D02*
X748032D01*
X744095Y913386D02*
Y921260D01*
X740158Y952755D02*
X748032D01*
X744095Y948818D02*
Y956692D01*
X791340Y952755D02*
X799214D01*
X795277Y948818D02*
Y956692D01*
X791340Y917323D02*
X799214D01*
X795277Y913386D02*
Y921260D01*
X791340Y846457D02*
X799214D01*
X795277Y842520D02*
Y850394D01*
X791340Y881889D02*
X799214D01*
X795277Y877952D02*
Y885826D01*
X791339Y1078741D02*
X799213D01*
X795276Y1074804D02*
Y1082678D01*
X842520Y952755D02*
X850394D01*
X846457Y948818D02*
Y956692D01*
X842520Y917323D02*
X850394D01*
X846457Y913386D02*
Y921260D01*
X842520Y846457D02*
X850394D01*
X846457Y842520D02*
Y850394D01*
X842520Y881889D02*
X850394D01*
X846457Y877952D02*
Y885826D01*
X842519Y1078741D02*
X850393D01*
X846456Y1074804D02*
Y1082678D01*
X893702Y952755D02*
X901576D01*
X897639Y948818D02*
Y956692D01*
X893702Y917323D02*
X901576D01*
X897639Y913386D02*
Y921260D01*
X893702Y846457D02*
X901576D01*
X897639Y842520D02*
Y850394D01*
X893702Y881889D02*
X901576D01*
X897639Y877952D02*
Y885826D01*
X944882Y988189D02*
X952756D01*
X948819Y984252D02*
Y992126D01*
X944882Y881889D02*
X952756D01*
X948819Y877952D02*
Y885826D01*
X944882Y846457D02*
X952756D01*
X948819Y842520D02*
Y850394D01*
X944882Y917323D02*
X952756D01*
X948819Y913386D02*
Y921260D01*
X944882Y952755D02*
X952756D01*
X948819Y948818D02*
Y956692D01*
X1448819Y1185039D02*
X1456693D01*
X1452756Y1181102D02*
Y1188976D01*
X1476379Y1161417D02*
X1484253D01*
X1480316Y1157480D02*
Y1165354D01*
X1503937Y1185039D02*
X1511811D01*
X1507874Y1181102D02*
Y1188976D01*
X1503937Y1161417D02*
X1511811D01*
X1507874Y1157480D02*
Y1165354D01*
X1476379Y1185039D02*
X1484253D01*
X1480316Y1181102D02*
Y1188976D01*
X1448819Y1161417D02*
X1456693D01*
X1452756Y1157480D02*
Y1165354D01*
X1503937Y1137795D02*
X1511811D01*
X1507874Y1133858D02*
Y1141732D01*
X1476379Y1137795D02*
X1484253D01*
X1480316Y1133858D02*
Y1141732D01*
X1448819Y1137795D02*
X1456693D01*
X1452756Y1133858D02*
Y1141732D01*
X1393701Y1070865D02*
X1401575D01*
X1397638Y1066928D02*
Y1074802D01*
X1421259Y1094489D02*
X1429133D01*
X1425196Y1090552D02*
Y1098426D01*
X1448819Y1070865D02*
X1456693D01*
X1452756Y1066928D02*
Y1074802D01*
X1448819Y1094489D02*
X1456693D01*
X1452756Y1090552D02*
Y1098426D01*
X1503937Y1070865D02*
X1511811D01*
X1507874Y1066928D02*
Y1074802D01*
X1393701Y1094489D02*
X1401575D01*
X1397638Y1090552D02*
Y1098426D01*
X1476379Y1094489D02*
X1484253D01*
X1480316Y1090552D02*
Y1098426D01*
X1476379Y1070865D02*
X1484253D01*
X1480316Y1066928D02*
Y1074802D01*
X1421259Y1070865D02*
X1429133D01*
X1425196Y1066928D02*
Y1074802D01*
X1503937Y1094489D02*
X1511811D01*
X1507874Y1090552D02*
Y1098426D01*
X1041929Y677167D02*
X1049803D01*
X1045866Y673230D02*
Y681104D01*
X805709Y677167D02*
X813583D01*
X809646Y673230D02*
Y681104D01*
X387205Y677167D02*
X395079D01*
X391142Y673230D02*
Y681104D01*
X625985Y1094489D02*
X633859D01*
X629922Y1090552D02*
Y1098426D01*
X755905Y606299D02*
X763779D01*
X759842Y602362D02*
Y610236D01*
X287205Y606299D02*
X295079D01*
X291142Y602362D02*
Y610236D01*
X437205Y606299D02*
X445079D01*
X441142Y602362D02*
Y610236D01*
X1421259Y1260391D02*
X1429133D01*
X1425196Y1256454D02*
Y1264328D01*
X1448627Y1236769D02*
X1456501D01*
X1452564Y1232832D02*
Y1240706D01*
X1476187Y1236769D02*
X1484061D01*
X1480124Y1232832D02*
Y1240706D01*
X1503745Y1236769D02*
X1511619D01*
X1507682Y1232832D02*
Y1240706D01*
X1421259Y1236769D02*
X1429133D01*
X1425196Y1232832D02*
Y1240706D01*
X1476187Y1260391D02*
X1484061D01*
X1480124Y1256454D02*
Y1264328D01*
X1476187Y1284013D02*
X1484061D01*
X1480124Y1280076D02*
Y1287950D01*
X1448627Y1284013D02*
X1456501D01*
X1452564Y1280076D02*
Y1287950D01*
X1448627Y1260391D02*
X1456501D01*
X1452564Y1256454D02*
Y1264328D01*
X653544Y952755D02*
X661418D01*
X657481Y948818D02*
Y956692D01*
X653544Y917323D02*
X661418D01*
X657481Y913386D02*
Y921260D01*
X653544Y846457D02*
X661418D01*
X657481Y842520D02*
Y850394D01*
X653544Y881889D02*
X661418D01*
X657481Y877952D02*
Y885826D01*
X653544Y1023621D02*
X661418D01*
X657481Y1019684D02*
Y1027558D01*
X653544Y988189D02*
X661418D01*
X657481Y984252D02*
Y992126D01*
X602364Y988189D02*
X610238D01*
X606301Y984252D02*
Y992126D01*
X602364Y1023621D02*
X610238D01*
X606301Y1019684D02*
Y1027558D01*
X602364Y881889D02*
X610238D01*
X606301Y877952D02*
Y885826D01*
X602364Y846457D02*
X610238D01*
X606301Y842520D02*
Y850394D01*
X602364Y917323D02*
X610238D01*
X606301Y913386D02*
Y921260D01*
X602364Y952755D02*
X610238D01*
X606301Y948818D02*
Y956692D01*
X551181Y1102363D02*
X559055D01*
X555118Y1098426D02*
Y1106300D01*
X551181Y1066929D02*
X559055D01*
X555118Y1062992D02*
Y1070866D01*
X551182Y988189D02*
X559056D01*
X555119Y984252D02*
Y992126D01*
X551182Y1023621D02*
X559056D01*
X555119Y1019684D02*
Y1027558D01*
X551182Y881889D02*
X559056D01*
X555119Y877952D02*
Y885826D01*
X551182Y846457D02*
X559056D01*
X555119Y842520D02*
Y850394D01*
X551182Y917323D02*
X559056D01*
X555119Y913386D02*
Y921260D01*
X551182Y952755D02*
X559056D01*
X555119Y948818D02*
Y956692D01*
X500001Y1102363D02*
X507875D01*
X503938Y1098426D02*
Y1106300D01*
X500001Y1066929D02*
X507875D01*
X503938Y1062992D02*
Y1070866D01*
X500002Y988189D02*
X507876D01*
X503939Y984252D02*
Y992126D01*
X500002Y1023621D02*
X507876D01*
X503939Y1019684D02*
Y1027558D01*
X500002Y881889D02*
X507876D01*
X503939Y877952D02*
Y885826D01*
X500002Y846457D02*
X507876D01*
X503939Y842520D02*
Y850394D01*
X500002Y917323D02*
X507876D01*
X503939Y913386D02*
Y921260D01*
X500002Y952755D02*
X507876D01*
X503939Y948818D02*
Y956692D01*
X448820Y952755D02*
X456694D01*
X452757Y948818D02*
Y956692D01*
X448820Y917323D02*
X456694D01*
X452757Y913386D02*
Y921260D01*
X448820Y846457D02*
X456694D01*
X452757Y842520D02*
Y850394D01*
X448820Y881889D02*
X456694D01*
X452757Y877952D02*
Y885826D01*
X448820Y1023621D02*
X456694D01*
X452757Y1019684D02*
Y1027558D01*
X448820Y988189D02*
X456694D01*
X452757Y984252D02*
Y992126D01*
X448819Y1066929D02*
X456693D01*
X452756Y1062992D02*
Y1070866D01*
X448819Y1102363D02*
X456693D01*
X452756Y1098426D02*
Y1106300D01*
X295275Y929133D02*
X303149D01*
X299212Y925196D02*
Y933070D01*
X377953Y952755D02*
X385827D01*
X381890Y948818D02*
Y956692D01*
X350393Y929133D02*
X358267D01*
X354330Y925196D02*
Y933070D01*
X295275Y952755D02*
X303149D01*
X299212Y948818D02*
Y956692D01*
X295275Y905511D02*
X303149D01*
X299212Y901574D02*
Y909448D01*
X322835Y952755D02*
X330709D01*
X326772Y948818D02*
Y956692D01*
X322835Y905511D02*
X330709D01*
X326772Y901574D02*
Y909448D01*
X350393Y952755D02*
X358267D01*
X354330Y948818D02*
Y956692D01*
X350393Y905511D02*
X358267D01*
X354330Y901574D02*
Y909448D01*
X377953Y905511D02*
X385827D01*
X381890Y901574D02*
Y909448D01*
X377953Y929133D02*
X385827D01*
X381890Y925196D02*
Y933070D01*
X322835Y929133D02*
X330709D01*
X326772Y925196D02*
Y933070D01*
X480315Y43307D02*
X488189D01*
X484252Y39370D02*
Y47244D01*
X1535433Y102363D02*
X1543307D01*
X1539370Y98426D02*
Y106300D01*
X1421259Y78741D02*
X1429133D01*
X1425196Y74804D02*
Y82678D01*
X669291Y606299D02*
X677165D01*
X673228Y602362D02*
Y610236D01*
X740157Y787401D02*
X748031D01*
X744094Y783464D02*
Y791338D01*
X500001Y740331D02*
X507875D01*
X503938Y736394D02*
Y744268D01*
X1377953Y606299D02*
X1385827D01*
X1381890Y602362D02*
Y610236D01*
X1421259Y102363D02*
X1429133D01*
X1425196Y98426D02*
Y106300D01*
X1515745Y102363D02*
X1523619D01*
X1519682Y98426D02*
Y106300D01*
X1328149Y189963D02*
X1336023D01*
X1332086Y186026D02*
Y193900D01*
X1328149Y237207D02*
X1336023D01*
X1332086Y233270D02*
Y241144D01*
X1328149Y55119D02*
X1336023D01*
X1332086Y51182D02*
Y59056D01*
X1328149Y213585D02*
X1336023D01*
X1332086Y209648D02*
Y217522D01*
X1328149Y102363D02*
X1336023D01*
X1332086Y98426D02*
Y106300D01*
X1328149Y260829D02*
X1336023D01*
X1332086Y256892D02*
Y264766D01*
X1328149Y78741D02*
X1336023D01*
X1332086Y74804D02*
Y82678D01*
X1328149Y125985D02*
X1336023D01*
X1332086Y122048D02*
Y129922D01*
X948819Y322835D02*
X956693D01*
X952756Y318898D02*
Y326772D01*
X948819Y346457D02*
X956693D01*
X952756Y342520D02*
Y350394D01*
X948819Y417323D02*
X956693D01*
X952756Y413386D02*
Y421260D01*
X948819Y393701D02*
X956693D01*
X952756Y389764D02*
Y397638D01*
X948819Y370079D02*
X956693D01*
X952756Y366142D02*
Y374016D01*
X948819Y299213D02*
X956693D01*
X952756Y295276D02*
Y303150D01*
X948817Y139763D02*
X956691D01*
X952754Y135826D02*
Y143700D01*
X948819Y43307D02*
X956693D01*
X952756Y39370D02*
Y47244D01*
X948819Y66929D02*
X956693D01*
X952756Y62992D02*
Y70866D01*
X480315Y90551D02*
X488189D01*
X484252Y86614D02*
Y94488D01*
X480315Y66929D02*
X488189D01*
X484252Y62992D02*
Y70866D01*
X480315Y114173D02*
X488189D01*
X484252Y110236D02*
Y118110D01*
X480315Y137795D02*
X488189D01*
X484252Y133858D02*
Y141732D01*
X480315Y208661D02*
X488189D01*
X484252Y204724D02*
Y212598D01*
X480315Y232283D02*
X488189D01*
X484252Y228346D02*
Y236220D01*
X480315Y255905D02*
X488189D01*
X484252Y251968D02*
Y259842D01*
X480315Y185039D02*
X488189D01*
X484252Y181102D02*
Y188976D01*
X480315Y161417D02*
X488189D01*
X484252Y157480D02*
Y165354D01*
X105317Y161417D02*
X113191D01*
X109254Y157480D02*
Y165354D01*
X105317Y185039D02*
X113191D01*
X109254Y181102D02*
Y188976D01*
X105317Y255905D02*
X113191D01*
X109254Y251968D02*
Y259842D01*
X105317Y232283D02*
X113191D01*
X109254Y228346D02*
Y236220D01*
X105317Y208661D02*
X113191D01*
X109254Y204724D02*
Y212598D01*
X105317Y137795D02*
X113191D01*
X109254Y133858D02*
Y141732D01*
X105317Y43307D02*
X113191D01*
X109254Y39370D02*
Y47244D01*
X105317Y114173D02*
X113191D01*
X109254Y110236D02*
Y118110D01*
X105317Y66929D02*
X113191D01*
X109254Y62992D02*
Y70866D01*
X105317Y90551D02*
X113191D01*
X109254Y86614D02*
Y94488D01*
X1031497Y787575D02*
X1039371D01*
X1035434Y783638D02*
Y791512D01*
X1031497Y765921D02*
X1039371D01*
X1035434Y761984D02*
Y769858D01*
X1031497Y740331D02*
X1039371D01*
X1035434Y736394D02*
Y744268D01*
X740157Y740157D02*
X748031D01*
X744094Y736220D02*
Y744094D01*
X740157Y765747D02*
X748031D01*
X744094Y761810D02*
Y769684D01*
X448819Y787575D02*
X456693D01*
X452756Y783638D02*
Y791512D01*
X1133859Y765921D02*
X1141733D01*
X1137796Y761984D02*
Y769858D01*
X1082677Y787749D02*
X1090551D01*
X1086614Y783812D02*
Y791686D01*
X1082677Y740505D02*
X1090551D01*
X1086614Y736568D02*
Y744442D01*
X1133859Y787575D02*
X1141733D01*
X1137796Y783638D02*
Y791512D01*
X1133859Y740331D02*
X1141733D01*
X1137796Y736394D02*
Y744268D01*
X1082677Y764127D02*
X1090551D01*
X1086614Y760190D02*
Y768064D01*
X842519Y765747D02*
X850393D01*
X846456Y761810D02*
Y769684D01*
X791339Y787575D02*
X799213D01*
X795276Y783638D02*
Y791512D01*
X842519Y787401D02*
X850393D01*
X846456Y783464D02*
Y791338D01*
X842519Y740157D02*
X850393D01*
X846456Y736220D02*
Y744094D01*
X791339Y763953D02*
X799213D01*
X795276Y760016D02*
Y767890D01*
X1041929Y393701D02*
X1049803D01*
X1045866Y389764D02*
Y397638D01*
%TF.MD5,0b6582e622af9c3281844c25bd0348d5*%
M02*
