%TF.GenerationSoftware,Altium Limited,Altium Designer,21.4.1 (30)*%
G04 Layer_Physical_Order=1*
G04 Layer_Color=255*
%FSLAX26Y26*%
%MOIN*%
%TF.SameCoordinates,1A054405-282A-4FF3-8963-BB1B344CA64D*%
%TF.FilePolarity,Positive*%
%TF.FileFunction,Copper,L1,Top,Signal*%
%TF.Part,Single*%
G01*
G75*
%TA.AperFunction,SMDPad,CuDef*%
%ADD10R,0.023622X0.061024*%
%ADD11O,0.031496X0.011811*%
%ADD12O,0.011811X0.031496*%
%ADD13R,0.104331X0.104331*%
%ADD14R,0.018000X0.042000*%
%ADD15R,0.025591X0.013780*%
%ADD16R,0.061024X0.094488*%
G04:AMPARAMS|DCode=17|XSize=86.614mil|YSize=220.472mil|CornerRadius=4.331mil|HoleSize=0mil|Usage=FLASHONLY|Rotation=90.000|XOffset=0mil|YOffset=0mil|HoleType=Round|Shape=RoundedRectangle|*
%AMROUNDEDRECTD17*
21,1,0.086614,0.211811,0,0,90.0*
21,1,0.077953,0.220472,0,0,90.0*
1,1,0.008661,0.105906,0.038976*
1,1,0.008661,0.105906,-0.038976*
1,1,0.008661,-0.105906,-0.038976*
1,1,0.008661,-0.105906,0.038976*
%
%ADD17ROUNDEDRECTD17*%
G04:AMPARAMS|DCode=18|XSize=47.244mil|YSize=125.984mil|CornerRadius=2.362mil|HoleSize=0mil|Usage=FLASHONLY|Rotation=90.000|XOffset=0mil|YOffset=0mil|HoleType=Round|Shape=RoundedRectangle|*
%AMROUNDEDRECTD18*
21,1,0.047244,0.121260,0,0,90.0*
21,1,0.042520,0.125984,0,0,90.0*
1,1,0.004724,0.060630,0.021260*
1,1,0.004724,0.060630,-0.021260*
1,1,0.004724,-0.060630,-0.021260*
1,1,0.004724,-0.060630,0.021260*
%
%ADD18ROUNDEDRECTD18*%
%ADD19R,0.035433X0.025591*%
%ADD20R,0.007874X0.019685*%
%ADD21R,0.019685X0.007874*%
%ADD22R,0.025591X0.035433*%
%TA.AperFunction,Conductor*%
%ADD23C,0.009842*%
%ADD24C,0.007874*%
%ADD25C,0.019685*%
%TA.AperFunction,ViaPad*%
%ADD26C,0.125984*%
%ADD27C,0.017716*%
%ADD28C,0.019685*%
G36*
X1259842Y1141732D02*
X511811D01*
Y1162661D01*
X477118D01*
Y1311661D01*
X511811D01*
Y1358268D01*
X1259842D01*
Y1141732D01*
D02*
G37*
G36*
X1188976Y1031496D02*
X1521653D01*
Y937220D01*
X1495467D01*
X1491243Y936380D01*
X1487661Y933987D01*
X1482809Y929134D01*
X1259842D01*
Y818898D01*
X1015748D01*
Y1115449D01*
X1188976D01*
Y1031496D01*
D02*
G37*
G36*
X885827Y1023621D02*
X972441D01*
Y817897D01*
X728346D01*
Y1124984D01*
X885827D01*
X885827Y1023621D01*
D02*
G37*
G36*
X609252Y1054118D02*
X680118D01*
Y817897D01*
X436023D01*
Y1124984D01*
X609252D01*
Y1054118D01*
D02*
G37*
G36*
X890102Y727518D02*
X728839D01*
Y804290D01*
X890102D01*
Y727518D01*
D02*
G37*
G36*
X598284Y724410D02*
X436023D01*
Y786702D01*
X436705Y788631D01*
X436477Y792932D01*
X436023Y794712D01*
Y801182D01*
X598284D01*
Y724410D01*
D02*
G37*
G36*
X1177165Y724409D02*
X1015748D01*
Y801181D01*
X1177165D01*
Y724409D01*
D02*
G37*
D10*
X909646Y606299D02*
D03*
X859646D02*
D03*
X809646D02*
D03*
X759646D02*
D03*
X909646Y393701D02*
D03*
X859646D02*
D03*
X809646D02*
D03*
X759646D02*
D03*
X995866D02*
D03*
X1095866D02*
D03*
X1145866D02*
D03*
X995866Y606299D02*
D03*
X1045866D02*
D03*
X1095866D02*
D03*
X1045866Y393701D02*
D03*
X1145866Y606299D02*
D03*
X1232086D02*
D03*
X523426D02*
D03*
X58858D02*
D03*
X441142D02*
D03*
X1282086Y393701D02*
D03*
X341142D02*
D03*
X573426D02*
D03*
X108858D02*
D03*
X673426Y606299D02*
D03*
X623426D02*
D03*
X573426D02*
D03*
X673426Y393701D02*
D03*
X623426D02*
D03*
X523426D02*
D03*
X1382086Y606299D02*
D03*
X1332086D02*
D03*
X1282086D02*
D03*
X1382086Y393701D02*
D03*
X1332086D02*
D03*
X1232086D02*
D03*
X208858Y606299D02*
D03*
X158858D02*
D03*
X108858D02*
D03*
X208858Y393701D02*
D03*
X158858D02*
D03*
X58858D02*
D03*
X391142Y606299D02*
D03*
X341142D02*
D03*
X291142D02*
D03*
X441142Y393701D02*
D03*
X391142D02*
D03*
X291142D02*
D03*
D11*
X909448Y88583D02*
D03*
Y114173D02*
D03*
Y165355D02*
D03*
X757874D02*
D03*
Y139763D02*
D03*
Y88583D02*
D03*
X909448Y139763D02*
D03*
X757874Y114173D02*
D03*
D12*
X872048Y202755D02*
D03*
X846456D02*
D03*
X820866D02*
D03*
X795276D02*
D03*
Y51181D02*
D03*
X820866D02*
D03*
X846456D02*
D03*
X872048D02*
D03*
D13*
X833662Y126969D02*
D03*
D14*
X630118Y763953D02*
D03*
X480118D02*
D03*
X530118D02*
D03*
X580118D02*
D03*
Y991953D02*
D03*
X480118D02*
D03*
X530118D02*
D03*
X630118D02*
D03*
X1162796Y1322661D02*
D03*
X1112796D02*
D03*
X1212796D02*
D03*
X1062796D02*
D03*
X821456D02*
D03*
X771456D02*
D03*
X871456D02*
D03*
X580118D02*
D03*
X630118D02*
D03*
X921456D02*
D03*
X530118D02*
D03*
X480118D02*
D03*
X1212796Y991953D02*
D03*
X1162796Y1094661D02*
D03*
X1112796Y991953D02*
D03*
Y1094661D02*
D03*
X1162796Y991953D02*
D03*
X1062796D02*
D03*
Y1094661D02*
D03*
X921456Y991953D02*
D03*
X871456Y1094661D02*
D03*
Y991953D02*
D03*
X821456D02*
D03*
Y1094661D02*
D03*
X771456D02*
D03*
Y991953D02*
D03*
X580118Y1094661D02*
D03*
X530118D02*
D03*
X480118D02*
D03*
X1162796Y763953D02*
D03*
X1112796D02*
D03*
X821456D02*
D03*
X1062796D02*
D03*
X871456D02*
D03*
X771456D02*
D03*
X921456D02*
D03*
X1212796D02*
D03*
Y1094661D02*
D03*
X921456D02*
D03*
X630118D02*
D03*
D15*
X1645897Y415354D02*
D03*
Y440944D02*
D03*
Y466536D02*
D03*
X1523851Y492126D02*
D03*
Y466536D02*
D03*
Y440944D02*
D03*
Y415354D02*
D03*
X1645897Y492126D02*
D03*
D16*
X1584873Y453740D02*
D03*
D17*
X157480Y1155511D02*
D03*
Y801181D02*
D03*
X1614174Y856299D02*
D03*
Y1309055D02*
D03*
D18*
X322834Y929133D02*
D03*
Y1027559D02*
D03*
X1448818Y1181103D02*
D03*
Y1082677D02*
D03*
Y984251D02*
D03*
D19*
X1452757Y191930D02*
D03*
Y249016D02*
D03*
X1688976Y247046D02*
D03*
Y304132D02*
D03*
X1011812Y56104D02*
D03*
Y233269D02*
D03*
X653545Y233267D02*
D03*
X653544Y56101D02*
D03*
X1129922Y233269D02*
D03*
X1070865D02*
D03*
X1129922Y56104D02*
D03*
X1070866D02*
D03*
X594488Y233267D02*
D03*
X535434D02*
D03*
X594488Y56101D02*
D03*
X535434D02*
D03*
X1665581Y630906D02*
D03*
X1607511D02*
D03*
X1452983Y353625D02*
D03*
Y410711D02*
D03*
X594488Y113187D02*
D03*
X653544D02*
D03*
X1548455Y630906D02*
D03*
Y573818D02*
D03*
X1452983Y524607D02*
D03*
Y467519D02*
D03*
X594488Y176179D02*
D03*
X653545D02*
D03*
X1724635Y630906D02*
D03*
Y573818D02*
D03*
X1724637Y497048D02*
D03*
Y439960D02*
D03*
X1070865Y176181D02*
D03*
X1011812D02*
D03*
X1070866Y113190D02*
D03*
X1011812Y113190D02*
D03*
X535434Y113187D02*
D03*
X1607511Y573818D02*
D03*
X535434Y176179D02*
D03*
X1665581Y573818D02*
D03*
X1129922Y176181D02*
D03*
Y113190D02*
D03*
D20*
X1570867Y239173D02*
D03*
X1586615D02*
D03*
Y288385D02*
D03*
X1570867D02*
D03*
D21*
X1609251Y248031D02*
D03*
Y263779D02*
D03*
Y279527D02*
D03*
X1548229D02*
D03*
Y263779D02*
D03*
Y248031D02*
D03*
D22*
X806102Y259843D02*
D03*
X1522406Y139763D02*
D03*
X863190Y259843D02*
D03*
X1465320Y139763D02*
D03*
X1278544Y322835D02*
D03*
X1335630D02*
D03*
X1042322D02*
D03*
X1099410D02*
D03*
X569882D02*
D03*
X626968D02*
D03*
X806102D02*
D03*
X863190D02*
D03*
X105316D02*
D03*
X162402D02*
D03*
X337598D02*
D03*
X394686D02*
D03*
D23*
X573426Y606299D02*
Y639904D01*
X579192Y645669D02*
X598425D01*
X573426Y639904D02*
X579192Y645669D01*
X897638Y1120219D02*
X903907Y1126488D01*
X1226281D02*
X1226784Y1125984D01*
X903907Y1126488D02*
X1226281D01*
X1226784Y1125984D02*
X1415441D01*
X1424299Y1117126D01*
X897638Y1073168D02*
Y1120219D01*
X424210Y696852D02*
X481369Y639693D01*
X361829Y679050D02*
X379631Y696852D01*
X337598Y677167D02*
X339481Y679050D01*
X481369Y639693D02*
Y639693D01*
X379631Y696852D02*
X424210D01*
X339481Y679050D02*
X361829D01*
X952756Y581972D02*
Y621287D01*
Y581972D02*
X1011106Y523622D01*
X861418Y324607D02*
Y391929D01*
X909448Y563975D02*
Y606299D01*
X888780Y543307D02*
X909448Y563975D01*
X809646Y606299D02*
X859646D01*
Y393701D02*
X861418Y391929D01*
X598284Y543307D02*
X888780D01*
X861418Y324607D02*
X863190Y322835D01*
X809646Y606299D02*
Y677167D01*
X927454Y709543D02*
X982423D01*
X895077Y677165D02*
X927454Y709543D01*
X863190Y677165D02*
X895077D01*
X921456Y1094661D02*
X982423D01*
X988189Y715308D02*
Y1088896D01*
X982423Y1094661D02*
X988189Y1088896D01*
X982423Y709543D02*
X988189Y715308D01*
X550788Y502952D02*
Y676912D01*
Y502952D02*
X559646Y494095D01*
X550788Y676912D02*
X560884Y687008D01*
X757874D01*
X559646Y494095D02*
X1285433D01*
X1303150Y476378D01*
X1331889Y606496D02*
X1332086Y606299D01*
X1331889Y606496D02*
Y676968D01*
X1331692Y677165D02*
X1331889Y676968D01*
X1457102Y865545D02*
X1501990Y910433D01*
X1438014Y846457D02*
X1457102Y865545D01*
X1387656Y846457D02*
X1438014D01*
X1457102Y865545D02*
Y865545D01*
X1381133Y862205D02*
X1431491D01*
X1495467Y926181D01*
X1366142Y791339D02*
Y847214D01*
X1251970Y677167D02*
X1366142Y791339D01*
X1103348Y677167D02*
X1251970D01*
X1553289Y926181D02*
X1559055Y931947D01*
Y1042463D01*
X1495467Y926181D02*
X1553289D01*
X1366142Y847214D02*
X1381133Y862205D01*
X1381890Y840691D02*
X1387656Y846457D01*
X1501990Y910433D02*
X1608408D01*
X1614174Y916199D02*
Y1017863D01*
X1381890Y664129D02*
Y840691D01*
X1608408Y910433D02*
X1614174Y916199D01*
X1414225Y624370D02*
Y631795D01*
Y624370D02*
X1432295Y606299D01*
X1381890Y664129D02*
X1414225Y631795D01*
X1553289Y1048228D02*
X1559055Y1042463D01*
X1382725Y1048228D02*
X1553289D01*
X1374999Y1055954D02*
Y1088896D01*
Y1055954D02*
X1382725Y1048228D01*
X1369233Y1094661D02*
X1374999Y1088896D01*
X1212796Y1094661D02*
X1369233D01*
X1424299Y1117126D02*
X1514911D01*
X1614174Y1017863D01*
X907941Y1044814D02*
Y1062864D01*
Y1044814D02*
X909448Y1043307D01*
X897638Y1073168D02*
X907941Y1062864D01*
X354331Y1141906D02*
X409309Y1086927D01*
Y885686D02*
Y1086927D01*
X354331Y1141906D02*
Y1240157D01*
X484252Y474270D02*
Y636810D01*
X481369Y639693D02*
X484252Y636810D01*
X260262Y437008D02*
X773973D01*
X287821Y452756D02*
X945162D01*
X397638Y874016D02*
X409309Y885686D01*
X292699Y874016D02*
X397638D01*
X413386Y291339D02*
X444882Y322835D01*
X88443Y291339D02*
X413386D01*
X419909Y275591D02*
X438610Y294292D01*
X29388Y275591D02*
X419909D01*
X484252Y474270D02*
X490018Y468504D01*
X494094Y468504D02*
X951685D01*
X490018Y468504D02*
X494094Y468504D01*
X1592381Y303149D02*
X1623114D01*
X1586615Y288385D02*
Y297384D01*
X1592381Y303149D01*
X278543Y730906D02*
Y860376D01*
X252953Y705317D02*
X278543Y730906D01*
X252953Y487624D02*
Y705317D01*
X1640421Y273623D02*
X1642616D01*
X1410489Y320867D02*
X1500128D01*
X1404724Y326633D02*
Y517990D01*
Y326633D02*
X1410489Y320867D01*
X1632258Y322834D02*
X1650960Y304132D01*
X1584506Y322834D02*
X1632258D01*
X1650960Y304132D02*
X1688976D01*
X1510005Y244094D02*
X1513942Y248031D01*
X1548229D01*
X1507874Y244094D02*
X1510005D01*
X1240246Y523622D02*
X1240380Y523756D01*
X1011106Y523622D02*
X1240246D01*
X1240380Y523756D02*
X1398958D01*
X1404724Y517990D01*
X1177165Y549213D02*
X1418606D01*
X1493864Y624471D01*
X1011812Y176181D02*
X1129922D01*
X704585Y88583D02*
X757874D01*
X653544Y113187D02*
X691086D01*
X696851Y96317D02*
X704585Y88583D01*
X696851Y96317D02*
Y107421D01*
X691086Y113187D02*
X696851Y107421D01*
X594488Y113187D02*
X653544D01*
X909448Y165355D02*
X948818D01*
X959644Y176181D02*
X1011812D01*
X948818Y165355D02*
X959644Y176181D01*
X710351Y139763D02*
X757874D01*
X653545Y174210D02*
X686025D01*
X651576Y176179D02*
X653545Y174210D01*
X696851Y153263D02*
X710351Y139763D01*
X686025Y174210D02*
X696851Y163384D01*
Y153263D02*
Y163384D01*
X535434Y113187D02*
X594488D01*
X909448Y114173D02*
X1010829D01*
X1676995Y355288D02*
X1708689D01*
X763640Y202755D02*
X795276D01*
X757874Y165355D02*
Y196989D01*
X763640Y202755D01*
X872048Y51181D02*
X903682D01*
X909448Y56947D02*
Y88583D01*
X846456Y202755D02*
X872048D01*
X1152418D01*
X1166057Y189116D01*
Y179976D02*
Y189116D01*
Y179976D02*
X1197412Y148621D01*
X1337288D01*
X1382086Y103823D01*
Y44997D02*
Y103823D01*
Y44997D02*
X1387852Y39231D01*
X1591326D01*
X1597441Y45346D01*
Y122900D01*
X1650723Y176181D01*
X1717537D01*
X1731439Y190083D01*
Y332538D01*
X1708689Y355288D02*
X1731439Y332538D01*
X903682Y51181D02*
X909448Y56947D01*
Y139763D02*
X909646D01*
X1652362Y379921D02*
X1676995Y355288D01*
X1609744Y247539D02*
X1688484D01*
X1688976Y247046D01*
X1010829Y114173D02*
X1011812Y113190D01*
X1045866Y606299D02*
Y677167D01*
X1097638Y324607D02*
Y391929D01*
X1045866Y606299D02*
X1095866D01*
Y393701D02*
X1097638Y391929D01*
Y324607D02*
X1099410Y322835D01*
X978207D02*
X1042322D01*
X972441Y328601D02*
X978207Y322835D01*
X975673Y294292D02*
X1202301D01*
X960910Y279528D02*
X975673Y294292D01*
X1019547Y273623D02*
X1070866D01*
X1011812Y265887D02*
X1019547Y273623D01*
X1268701Y467519D02*
X1309448Y426772D01*
Y170135D02*
Y426772D01*
X952670Y467519D02*
X1268701D01*
X951685Y468504D02*
X952670Y467519D01*
X1547245Y280512D02*
Y381323D01*
X1430781Y387089D02*
X1541479D01*
X1547245Y381323D01*
X1424439Y393431D02*
X1430781Y387089D01*
X1424439Y443897D02*
X1448061Y467519D01*
X1424439Y393431D02*
Y443897D01*
X1452757Y249016D02*
X1457678D01*
X1472441Y263779D01*
X1548229D01*
X1724409Y440187D02*
Y440944D01*
Y440187D02*
X1724637Y439960D01*
X1645897Y440944D02*
X1723653D01*
X1592381Y220472D02*
X1656685D01*
X1586615Y226238D02*
X1592381Y220472D01*
X1586615Y226238D02*
Y239173D01*
X1688788Y212787D02*
X1688976Y212598D01*
X1656685Y220472D02*
X1664370Y212787D01*
X1688788D01*
X1581694Y139396D02*
X1643085Y200787D01*
X1581694Y60745D02*
Y139396D01*
X1403600Y54979D02*
X1575928D01*
X1581694Y60745D01*
X1642616Y273623D02*
X1643085D01*
X1632773Y263779D02*
X1642616Y273623D01*
X1634517Y279527D02*
X1640421Y273623D01*
X1609251Y279527D02*
X1634517D01*
X1609251Y263779D02*
X1632773D01*
X1315214Y164369D02*
X1343811D01*
X1309448Y170135D02*
X1315214Y164369D01*
X1343811D02*
X1397834Y110346D01*
Y60745D02*
Y110346D01*
Y60745D02*
X1403600Y54979D01*
X1448061Y467519D02*
X1452983D01*
X1609251Y248031D02*
X1609744Y247539D01*
X1570867Y309195D02*
X1584506Y322834D01*
X1570867Y288385D02*
Y309195D01*
X354330Y1240157D02*
X354331Y1240157D01*
X279314Y887401D02*
X292699Y874016D01*
X232284Y887401D02*
X279314D01*
X1452983Y410711D02*
X1457626Y415354D01*
X1523851D01*
X1663753Y466536D02*
X1669519Y472302D01*
Y521379D01*
X1645897Y466536D02*
X1663753D01*
X1665581Y525317D02*
Y573818D01*
Y525317D02*
X1669519Y521379D01*
X1535659Y536283D02*
Y565944D01*
X1523851Y492126D02*
Y493377D01*
X1523132Y494095D02*
X1523851Y493377D01*
X1523132Y523756D02*
X1535659Y536283D01*
X1523132Y494095D02*
Y523756D01*
X1535659Y565944D02*
X1543533Y573818D01*
X1453474Y467028D02*
X1523359D01*
X1636054Y541338D02*
Y630414D01*
X1645897Y492126D02*
Y531495D01*
X1636054Y541338D02*
X1645897Y531495D01*
X1636054Y630414D02*
X1636546Y630906D01*
X1523359Y467028D02*
X1523851Y466536D01*
X1452983Y467519D02*
X1453474Y467028D01*
X1724637Y521379D02*
X1739540Y536283D01*
X1739707D01*
X1724637Y497048D02*
Y521379D01*
X1729471Y1063977D02*
X1735237Y1058211D01*
X1700788Y1063977D02*
X1729471D01*
X1735237Y752420D02*
Y1058211D01*
X1519911Y648186D02*
X1526253Y654528D01*
X1575789Y677165D02*
X1606580D01*
X1526253Y654528D02*
X1553152D01*
X1575789Y677165D01*
X1519911Y621287D02*
Y648186D01*
X1452983Y554359D02*
X1519911Y621287D01*
X1452983Y524607D02*
Y554359D01*
X1606580Y677165D02*
X1606580Y677165D01*
X1628599D01*
X1636054Y684620D02*
Y726055D01*
X1628599Y677165D02*
X1636054Y684620D01*
X1656653Y746654D02*
X1729471D01*
X1636054Y726055D02*
X1656653Y746654D01*
X1729471D02*
X1735237Y752420D01*
X1663177Y730906D02*
X1746203D01*
X1751968Y736672D02*
Y1175338D01*
X1746203Y730906D02*
X1751968Y736672D01*
X1651802Y678097D02*
Y719532D01*
X1663177Y730906D01*
X1635122Y661417D02*
X1651802Y678097D01*
X1584733Y661417D02*
X1635122D01*
X1578967Y636672D02*
Y655652D01*
X1584733Y661417D01*
X1548455Y630906D02*
X1573201D01*
X1578967Y636672D01*
X1692914Y1187599D02*
X1739707D01*
X1751968Y1175338D01*
X1636546Y630906D02*
X1665581D01*
X1607511D02*
X1636546D01*
X1665581Y573818D02*
X1724635D01*
X1543533D02*
X1607511D01*
X1692914Y711221D02*
X1724409Y679726D01*
Y631133D02*
Y679726D01*
Y631133D02*
X1724635Y630906D01*
X1070866Y237207D02*
X1074804Y233269D01*
X1129922D01*
X1070866Y113190D02*
X1129922D01*
X1070866Y113190D02*
X1070866Y113190D01*
X1011812Y113190D02*
X1070866D01*
X596457Y176179D02*
X651576D01*
X594488Y178147D02*
X596457Y176179D01*
X653544Y231299D02*
Y260829D01*
Y231299D02*
X653545Y231298D01*
X640751Y273623D02*
X653544Y260829D01*
X598284Y273623D02*
X640751D01*
X1011812Y237207D02*
Y265887D01*
X1070866Y58073D02*
X1129922D01*
X438610Y294292D02*
X929839D01*
X444882Y322835D02*
X569882D01*
X788049D02*
X806102D01*
X782284Y328601D02*
X788049Y322835D01*
X782284Y328601D02*
Y428698D01*
X773973Y437008D02*
X782284Y428698D01*
X945162Y452756D02*
X972441Y425477D01*
X366142Y31496D02*
Y244095D01*
X653544Y29388D02*
Y56101D01*
X647778Y23622D02*
X653544Y29388D01*
X374016Y23622D02*
X647778D01*
X366142Y31496D02*
X374016Y23622D01*
X535434Y178147D02*
X594488D01*
X484252Y255905D02*
X504922Y235235D01*
X594488D01*
X484252Y43307D02*
X486383D01*
X499177Y56101D02*
X535434D01*
X486383Y43307D02*
X499177Y56101D01*
X535434D02*
X594488D01*
X252953Y487624D02*
X287821Y452756D01*
X173228Y871907D02*
Y1081636D01*
X178994Y1087401D02*
X232284D01*
X173228Y1081636D02*
X178994Y1087401D01*
X173228Y871907D02*
X178994Y866142D01*
X272777D01*
X278543Y860376D01*
X972441Y338303D02*
Y425477D01*
X972441Y338303D02*
X972441Y338303D01*
X972441Y328601D02*
Y338303D01*
X186024Y328601D02*
Y735236D01*
Y328601D02*
X191790Y322835D01*
X337598D01*
X185039Y736221D02*
X186024Y735236D01*
X232284Y464986D02*
X260262Y437008D01*
X82677Y480315D02*
X133858Y429134D01*
Y328601D02*
Y429134D01*
X82677Y480315D02*
Y700788D01*
X118110Y736221D01*
X105316Y322835D02*
X128093D01*
X133858Y328601D01*
X47244Y462949D02*
X81496Y428698D01*
X47244Y462949D02*
Y464567D01*
X81496Y298286D02*
Y428698D01*
Y298286D02*
X88443Y291339D01*
X108858Y606299D02*
X158858D01*
X109254Y606695D02*
Y677167D01*
X23622Y281356D02*
Y1078741D01*
Y281356D02*
X29388Y275591D01*
X32282Y1087401D02*
X70866D01*
X23622Y1078741D02*
X32282Y1087401D01*
X1230844Y322835D02*
X1278544D01*
X1202301Y294292D02*
X1230844Y322835D01*
X944602Y279528D02*
X960910D01*
X929839Y294292D02*
X944602Y279528D01*
X1333858Y324607D02*
Y391929D01*
Y324607D02*
X1335630Y322835D01*
X1332086Y393701D02*
X1333858Y391929D01*
X1282086Y606299D02*
X1332086D01*
X625198Y324607D02*
Y391931D01*
Y324607D02*
X626968Y322835D01*
X623426Y393701D02*
X625198Y391931D01*
X573426Y606299D02*
X623426D01*
X158858Y393701D02*
X160630Y391929D01*
Y324607D02*
X162402Y322835D01*
X160630Y324607D02*
Y391929D01*
X392914Y324607D02*
Y391929D01*
X391142Y393701D02*
X392914Y391929D01*
Y324607D02*
X394686Y322835D01*
X391142Y606299D02*
Y677167D01*
X389636Y675659D02*
X391142Y677167D01*
X389636Y673493D02*
Y675659D01*
X341142Y606299D02*
Y624999D01*
Y606299D02*
X391142D01*
D24*
X812008Y517990D02*
X814268Y515730D01*
X823126D01*
X829998Y508858D02*
X1246361D01*
X823126Y515730D02*
X829998Y508858D01*
X1246361D02*
X1246495Y508992D01*
X1355315Y354121D02*
Y504380D01*
X1350702Y508992D02*
X1355315Y504380D01*
X1246495Y508992D02*
X1350702D01*
X820866Y28235D02*
Y51181D01*
X825479Y23622D02*
X1596596D01*
X820866Y28235D02*
X825479Y23622D01*
X1612205Y39231D02*
Y116784D01*
X1596596Y23622D02*
X1612205Y39231D01*
X1656838Y161417D02*
X1723653D01*
X1612205Y116784D02*
X1656838Y161417D01*
X1702362Y379921D02*
X1741590D01*
X1723653Y161417D02*
X1746203Y183967D01*
Y375309D01*
X1741590Y379921D02*
X1746203Y375309D01*
X795276Y51181D02*
X820866D01*
X1421051Y288385D02*
X1448818D01*
X1355315Y354121D02*
X1421051Y288385D01*
X1588804Y190083D02*
X1590205D01*
X1570867Y209420D02*
X1590205Y190083D01*
X1591326D01*
X1570867Y209420D02*
Y239173D01*
X1500128Y182086D02*
X1580808D01*
X1588804Y190083D01*
X1490284Y191930D02*
X1500128Y182086D01*
X1452757Y191930D02*
X1490284D01*
X1602362Y379921D02*
X1623114D01*
X1644459Y401266D01*
Y413916D01*
X1645897Y415354D01*
X1166057Y78741D02*
X1188976D01*
X1016424Y86615D02*
X1158184D01*
X1166057Y78741D01*
X1011812Y82003D02*
X1016424Y86615D01*
X1011812Y58073D02*
Y82003D01*
X522884Y606299D02*
X523426D01*
D25*
X108858D02*
X109254Y606695D01*
X1409448Y984251D02*
X1448818D01*
D26*
X1338582Y1291339D02*
D03*
X86614D02*
D03*
X354330Y771653D02*
D03*
X1685040Y86615D02*
D03*
D27*
X598425Y645669D02*
D03*
X1303150Y476378D02*
D03*
X1331692Y677165D02*
D03*
X1432295Y606299D02*
D03*
X909448Y1043307D02*
D03*
X1103348Y677167D02*
D03*
X1282086Y1224409D02*
D03*
X452756Y765921D02*
D03*
Y740331D02*
D03*
X757874Y114173D02*
D03*
X354330Y1318897D02*
D03*
X1692914Y661417D02*
D03*
X795276Y740331D02*
D03*
X1232284Y606299D02*
D03*
X1484252Y811024D02*
D03*
X1437008Y763779D02*
D03*
X1413386D02*
D03*
X1460630Y787750D02*
D03*
X1437008Y787402D02*
D03*
Y811024D02*
D03*
X1413386D02*
D03*
Y787402D02*
D03*
X1460630Y811371D02*
D03*
X1484252Y763779D02*
D03*
Y787402D02*
D03*
X1460630Y764128D02*
D03*
X1623114Y303149D02*
D03*
X1507874Y244094D02*
D03*
X872048Y51181D02*
D03*
X952756Y90551D02*
D03*
X1688976Y247046D02*
D03*
X1129922Y543307D02*
D03*
X1177165Y549213D02*
D03*
X629922Y763953D02*
D03*
X555118Y787575D02*
D03*
Y765921D02*
D03*
Y740331D02*
D03*
X503938Y763953D02*
D03*
Y787575D02*
D03*
X1522406Y139763D02*
D03*
X1465320D02*
D03*
X1643085Y200787D02*
D03*
X1507874D02*
D03*
X108858Y393701D02*
D03*
X341142D02*
D03*
X573426D02*
D03*
X1282086D02*
D03*
X208662Y1248031D02*
D03*
X232284Y887401D02*
D03*
X1452983Y410711D02*
D03*
X1602362Y379921D02*
D03*
X1523851Y440944D02*
D03*
X795276Y202755D02*
D03*
X806102Y259843D02*
D03*
X863190D02*
D03*
X1692914Y711221D02*
D03*
X1452983Y353625D02*
D03*
X1607511Y630906D02*
D03*
X1746203Y1287599D02*
D03*
X1692914Y1137599D02*
D03*
X1539370Y974409D02*
D03*
X1582678D02*
D03*
X1671260D02*
D03*
X1145670Y606299D02*
D03*
X996064D02*
D03*
X809646Y393701D02*
D03*
X1212796Y763953D02*
D03*
X921456D02*
D03*
X326772Y1027559D02*
D03*
X354330Y1003937D02*
D03*
X250492Y255905D02*
D03*
X717008Y393371D02*
D03*
X452756Y1251969D02*
D03*
X1188976Y101377D02*
D03*
Y124999D02*
D03*
X716536Y66929D02*
D03*
Y41337D02*
D03*
Y114173D02*
D03*
Y161417D02*
D03*
Y185039D02*
D03*
Y208661D02*
D03*
Y346457D02*
D03*
Y370079D02*
D03*
Y320867D02*
D03*
X1188976Y259843D02*
D03*
Y322835D02*
D03*
Y393701D02*
D03*
Y370079D02*
D03*
Y346457D02*
D03*
Y236221D02*
D03*
Y55119D02*
D03*
Y212599D02*
D03*
Y78741D02*
D03*
Y188977D02*
D03*
X250492Y90551D02*
D03*
Y66929D02*
D03*
Y114173D02*
D03*
Y43307D02*
D03*
Y137795D02*
D03*
Y208661D02*
D03*
Y232283D02*
D03*
Y185039D02*
D03*
Y161417D02*
D03*
X1240158Y1224409D02*
D03*
Y1279527D02*
D03*
Y1307087D02*
D03*
Y1334645D02*
D03*
Y1251969D02*
D03*
X795276D02*
D03*
X846456D02*
D03*
X897638D02*
D03*
X1137796Y1334645D02*
D03*
X1035434D02*
D03*
X1086614D02*
D03*
X1188976D02*
D03*
X606300D02*
D03*
X657480D02*
D03*
X555118D02*
D03*
X657480Y1279527D02*
D03*
Y1307087D02*
D03*
Y1224409D02*
D03*
Y1251969D02*
D03*
X1035434Y1279527D02*
D03*
Y1307087D02*
D03*
Y1224409D02*
D03*
Y1251969D02*
D03*
X744094Y1279527D02*
D03*
Y1307087D02*
D03*
Y1224409D02*
D03*
Y1251969D02*
D03*
X948820D02*
D03*
Y1224409D02*
D03*
Y1307087D02*
D03*
Y1279527D02*
D03*
X846456Y1334645D02*
D03*
X744094D02*
D03*
X795276D02*
D03*
X948820D02*
D03*
X897638D02*
D03*
Y1307087D02*
D03*
Y1279527D02*
D03*
X846456D02*
D03*
Y1307087D02*
D03*
X795276D02*
D03*
Y1279527D02*
D03*
X1137796Y1224409D02*
D03*
X1188976D02*
D03*
X1086614D02*
D03*
Y1251969D02*
D03*
X1137796D02*
D03*
X1188976D02*
D03*
X1086614Y1279527D02*
D03*
X1137796Y1307087D02*
D03*
Y1279527D02*
D03*
X1188976D02*
D03*
Y1307087D02*
D03*
X1086614D02*
D03*
X555118Y1224409D02*
D03*
X606300D02*
D03*
X503938D02*
D03*
Y1251969D02*
D03*
X555118D02*
D03*
X606300D02*
D03*
X503938Y1279527D02*
D03*
Y1307087D02*
D03*
X555118D02*
D03*
Y1279527D02*
D03*
X606300D02*
D03*
Y1307087D02*
D03*
X1240159Y952755D02*
D03*
Y917323D02*
D03*
Y846457D02*
D03*
Y881889D02*
D03*
Y1023621D02*
D03*
Y988189D02*
D03*
X1188977D02*
D03*
Y881889D02*
D03*
Y846457D02*
D03*
Y917323D02*
D03*
Y952755D02*
D03*
X1137797Y988189D02*
D03*
Y881889D02*
D03*
Y846457D02*
D03*
Y917323D02*
D03*
Y952755D02*
D03*
X1086615Y988189D02*
D03*
Y881889D02*
D03*
Y846457D02*
D03*
Y917323D02*
D03*
Y952755D02*
D03*
X1035435D02*
D03*
Y917323D02*
D03*
Y846457D02*
D03*
Y881889D02*
D03*
Y1023621D02*
D03*
Y988189D02*
D03*
X909448Y606299D02*
D03*
X897639Y988189D02*
D03*
X795277D02*
D03*
X846457D02*
D03*
X795276Y1102363D02*
D03*
X846456D02*
D03*
X1421260Y708661D02*
D03*
Y661417D02*
D03*
X1444882Y708661D02*
D03*
X1468504Y685039D02*
D03*
X1492126Y661417D02*
D03*
X1444882Y661417D02*
D03*
X1421260Y685039D02*
D03*
X1444882D02*
D03*
X1468504Y661417D02*
D03*
X1492126Y685039D02*
D03*
Y708661D02*
D03*
X1468504Y708661D02*
D03*
X744094Y1102363D02*
D03*
Y1078741D02*
D03*
X744095Y988189D02*
D03*
Y881889D02*
D03*
Y846457D02*
D03*
Y917323D02*
D03*
Y952755D02*
D03*
X795277D02*
D03*
Y917323D02*
D03*
Y846457D02*
D03*
Y881889D02*
D03*
X795276Y1078741D02*
D03*
X846457Y952755D02*
D03*
Y917323D02*
D03*
Y846457D02*
D03*
Y881889D02*
D03*
X846456Y1078741D02*
D03*
X897639Y952755D02*
D03*
Y917323D02*
D03*
Y846457D02*
D03*
Y881889D02*
D03*
X948819Y988189D02*
D03*
Y881889D02*
D03*
Y846457D02*
D03*
Y917323D02*
D03*
Y952755D02*
D03*
X1452756Y1185039D02*
D03*
X1480316Y1161417D02*
D03*
X1507874Y1185039D02*
D03*
Y1161417D02*
D03*
X1480316Y1185039D02*
D03*
X1452756Y1161417D02*
D03*
X1507874Y1137795D02*
D03*
X1480316D02*
D03*
X1452756D02*
D03*
X1507874Y1070865D02*
D03*
X1397638Y1094489D02*
D03*
X1425196Y1070865D02*
D03*
X1045866Y677167D02*
D03*
X809646D02*
D03*
X391142D02*
D03*
X629922Y1094489D02*
D03*
X759842Y606299D02*
D03*
X291142D02*
D03*
X441142D02*
D03*
X1425196Y1260391D02*
D03*
X1452564Y1236769D02*
D03*
X1480124D02*
D03*
X1507682D02*
D03*
X1425196D02*
D03*
X1480124Y1260391D02*
D03*
Y1284013D02*
D03*
X1452564D02*
D03*
Y1260391D02*
D03*
X657481Y952755D02*
D03*
Y917323D02*
D03*
Y846457D02*
D03*
Y881889D02*
D03*
Y1023621D02*
D03*
Y988189D02*
D03*
X606301D02*
D03*
Y1023621D02*
D03*
Y881889D02*
D03*
Y846457D02*
D03*
Y917323D02*
D03*
Y952755D02*
D03*
X555118Y1102363D02*
D03*
Y1066929D02*
D03*
X555119Y988189D02*
D03*
Y1023621D02*
D03*
Y881889D02*
D03*
Y846457D02*
D03*
Y917323D02*
D03*
Y952755D02*
D03*
X503938Y1102363D02*
D03*
Y1066929D02*
D03*
X503939Y988189D02*
D03*
Y1023621D02*
D03*
Y881889D02*
D03*
Y846457D02*
D03*
Y917323D02*
D03*
Y952755D02*
D03*
X452757D02*
D03*
Y917323D02*
D03*
Y846457D02*
D03*
Y881889D02*
D03*
Y1023621D02*
D03*
Y988189D02*
D03*
X452756Y1066929D02*
D03*
Y1102363D02*
D03*
X326772Y929133D02*
D03*
X484252Y43307D02*
D03*
X1539370Y102363D02*
D03*
X1425196Y78741D02*
D03*
X673228Y606299D02*
D03*
X744094Y787401D02*
D03*
X503938Y740331D02*
D03*
X1381890Y606299D02*
D03*
X1425196Y102363D02*
D03*
X1519682D02*
D03*
X1332086Y189963D02*
D03*
Y237207D02*
D03*
Y55119D02*
D03*
Y213585D02*
D03*
Y102363D02*
D03*
Y260829D02*
D03*
Y78741D02*
D03*
Y125985D02*
D03*
X952756Y322835D02*
D03*
Y346457D02*
D03*
Y417323D02*
D03*
Y393701D02*
D03*
Y370079D02*
D03*
Y299213D02*
D03*
X952754Y139763D02*
D03*
X952756Y43307D02*
D03*
Y66929D02*
D03*
X484252Y90551D02*
D03*
Y66929D02*
D03*
Y114173D02*
D03*
Y137795D02*
D03*
Y208661D02*
D03*
Y232283D02*
D03*
Y255905D02*
D03*
Y185039D02*
D03*
Y161417D02*
D03*
X109254D02*
D03*
Y185039D02*
D03*
Y255905D02*
D03*
Y232283D02*
D03*
Y208661D02*
D03*
Y137795D02*
D03*
Y43307D02*
D03*
Y114173D02*
D03*
Y66929D02*
D03*
Y90551D02*
D03*
X1035434Y787575D02*
D03*
Y765921D02*
D03*
Y740331D02*
D03*
X744094Y740157D02*
D03*
Y765747D02*
D03*
X452756Y787575D02*
D03*
X1137796Y765921D02*
D03*
X1086614Y787749D02*
D03*
Y740505D02*
D03*
X1137796Y787575D02*
D03*
Y740331D02*
D03*
X1086614Y764127D02*
D03*
X846456Y765747D02*
D03*
X795276Y787575D02*
D03*
X846456Y787401D02*
D03*
Y740157D02*
D03*
X795276Y763953D02*
D03*
X1045866Y393701D02*
D03*
D28*
X337598Y677167D02*
D03*
X952756Y621287D02*
D03*
X812008Y517990D02*
D03*
X863190Y677165D02*
D03*
X389764Y1165354D02*
D03*
X757874Y687008D02*
D03*
X279528Y692913D02*
D03*
X208858Y606299D02*
D03*
X1643085Y273623D02*
D03*
X855314Y105315D02*
D03*
X812008D02*
D03*
X855314Y148621D02*
D03*
X812008D02*
D03*
X909646Y139763D02*
D03*
X1500128Y320867D02*
D03*
X1448818Y288385D02*
D03*
X1591326Y190083D02*
D03*
X1724409Y440944D02*
D03*
X1688976Y212598D02*
D03*
X354330Y1240157D02*
D03*
X1652362Y379921D02*
D03*
X1739707Y536283D02*
D03*
X1493864Y624471D02*
D03*
X1702362Y379921D02*
D03*
X1700788Y1063977D02*
D03*
X1692914Y1187599D02*
D03*
X1070866Y273623D02*
D03*
Y237207D02*
D03*
Y58073D02*
D03*
X598284Y543307D02*
D03*
Y273623D02*
D03*
X366142Y244095D02*
D03*
X232284Y1087401D02*
D03*
Y464986D02*
D03*
X220472Y736221D02*
D03*
X185039D02*
D03*
X232284Y937401D02*
D03*
X118110Y736221D02*
D03*
X82677D02*
D03*
X47244D02*
D03*
X70866Y887401D02*
D03*
Y937401D02*
D03*
X47244Y464567D02*
D03*
X109254Y677167D02*
D03*
X522884Y606299D02*
D03*
X58858D02*
D03*
X70866Y1087401D02*
D03*
X381890Y1027559D02*
D03*
X299212D02*
D03*
Y1003937D02*
D03*
Y1055117D02*
D03*
X326772Y1003937D02*
D03*
X354330Y1027559D02*
D03*
X503938Y1334645D02*
D03*
X354330Y1055119D02*
D03*
X326772D02*
D03*
X381890D02*
D03*
Y1003937D02*
D03*
X452756Y1279527D02*
D03*
Y1224409D02*
D03*
Y1307087D02*
D03*
Y1338579D02*
D03*
X1397638Y1070865D02*
D03*
X1425196Y1094489D02*
D03*
X1452756Y1070865D02*
D03*
Y1094489D02*
D03*
X1480316D02*
D03*
Y1070865D02*
D03*
X1507874Y1094489D02*
D03*
X299212Y929133D02*
D03*
X381890Y952755D02*
D03*
X354330Y929133D02*
D03*
X299212Y952755D02*
D03*
Y905511D02*
D03*
X326772Y952755D02*
D03*
Y905511D02*
D03*
X354330Y952755D02*
D03*
Y905511D02*
D03*
X381890D02*
D03*
Y929133D02*
D03*
%TF.MD5,de3789bbdf0866988175739974d745d2*%
M02*
