%TF.GenerationSoftware,Altium Limited,Altium Designer,21.4.1 (30)*%
G04 Layer_Physical_Order=8*
G04 Layer_Color=16711680*
%FSLAX26Y26*%
%MOIN*%
%TF.SameCoordinates,1A054405-282A-4FF3-8963-BB1B344CA64D*%
%TF.FilePolarity,Positive*%
%TF.FileFunction,Copper,L8,Bot,Signal*%
%TF.Part,Single*%
G01*
G75*
%TA.AperFunction,SMDPad,CuDef*%
%ADD19R,0.035433X0.025591*%
%ADD22R,0.025591X0.035433*%
%TA.AperFunction,Conductor*%
%ADD23C,0.009842*%
%ADD24C,0.007874*%
%ADD25C,0.019685*%
%TA.AperFunction,ViaPad*%
%ADD26C,0.125984*%
%ADD27C,0.017716*%
%ADD28C,0.019685*%
%TA.AperFunction,SMDPad,CuDef*%
%ADD34O,0.061024X0.023622*%
G04:AMPARAMS|DCode=35|XSize=29.134mil|YSize=66.929mil|CornerRadius=1.457mil|HoleSize=0mil|Usage=FLASHONLY|Rotation=90.000|XOffset=0mil|YOffset=0mil|HoleType=Round|Shape=RoundedRectangle|*
%AMROUNDEDRECTD35*
21,1,0.029134,0.064016,0,0,90.0*
21,1,0.026221,0.066929,0,0,90.0*
1,1,0.002913,0.032008,0.013110*
1,1,0.002913,0.032008,-0.013110*
1,1,0.002913,-0.032008,-0.013110*
1,1,0.002913,-0.032008,0.013110*
%
%ADD35ROUNDEDRECTD35*%
%ADD36R,0.047244X0.047244*%
%ADD37R,0.055118X0.114173*%
%ADD38R,0.114173X0.055118*%
%ADD39R,0.037402X0.039370*%
%ADD40R,0.023622X0.039370*%
%ADD41R,0.078740X0.039370*%
G04:AMPARAMS|DCode=42|XSize=29.134mil|YSize=66.929mil|CornerRadius=1.457mil|HoleSize=0mil|Usage=FLASHONLY|Rotation=180.000|XOffset=0mil|YOffset=0mil|HoleType=Round|Shape=RoundedRectangle|*
%AMROUNDEDRECTD42*
21,1,0.029134,0.064016,0,0,180.0*
21,1,0.026221,0.066929,0,0,180.0*
1,1,0.002913,-0.013110,0.032008*
1,1,0.002913,0.013110,0.032008*
1,1,0.002913,0.013110,-0.032008*
1,1,0.002913,-0.013110,-0.032008*
%
%ADD42ROUNDEDRECTD42*%
G36*
X98425Y404147D02*
X96342Y402064D01*
X94094Y396638D01*
Y390764D01*
X96342Y385338D01*
X98425Y383255D01*
Y271654D01*
X125984D01*
Y24509D01*
X125097Y23622D01*
X27559D01*
Y425197D01*
X98425D01*
Y404147D01*
D02*
G37*
G36*
X326772Y429134D02*
X330709Y425197D01*
Y404147D01*
X328626Y402064D01*
X326378Y396638D01*
Y390764D01*
X328626Y385338D01*
X330709Y383256D01*
Y23622D01*
X170276D01*
Y425197D01*
X250492D01*
Y559055D01*
X326772D01*
Y429134D01*
D02*
G37*
G36*
X482776Y425197D02*
X562992D01*
Y404146D01*
X560910Y402064D01*
X558662Y396638D01*
Y390764D01*
X560910Y385338D01*
X562992Y383256D01*
Y23622D01*
X402559D01*
Y559055D01*
X482776D01*
Y425197D01*
D02*
G37*
G36*
X794036Y426437D02*
X795276Y425197D01*
Y397587D01*
X794882Y396638D01*
Y390764D01*
X795276Y389815D01*
Y291339D01*
X732284D01*
Y23622D01*
X639475D01*
X634842Y28255D01*
X634842Y426437D01*
X728346D01*
Y559055D01*
X794036D01*
Y426437D01*
D02*
G37*
G36*
X968504Y425197D02*
X1032973D01*
Y401153D01*
X1031102Y396638D01*
Y390764D01*
X1032973Y386249D01*
Y260829D01*
X1061388D01*
X1061946Y260272D01*
X1067734Y257875D01*
X1073998D01*
X1079786Y260272D01*
X1080344Y260829D01*
X1086599D01*
Y213585D01*
X1032973D01*
Y86615D01*
X1086599D01*
Y39726D01*
X1080550Y33677D01*
X936729D01*
Y291339D01*
X872539D01*
Y550182D01*
X968504D01*
Y425197D01*
D02*
G37*
G36*
X1202410Y556788D02*
X1206635Y555948D01*
X1271653D01*
Y404147D01*
X1269570Y402064D01*
X1267322Y396638D01*
Y390764D01*
X1269570Y385338D01*
X1271653Y383255D01*
Y23622D01*
X1112824D01*
X1108677Y28404D01*
Y409557D01*
X1124316Y425197D01*
X1187500D01*
Y538668D01*
X1189681Y540850D01*
X1191929Y546276D01*
Y552149D01*
X1191140Y554055D01*
X1194235Y558687D01*
X1199170Y558953D01*
X1202410Y556788D01*
D02*
G37*
G36*
X1496063Y1255906D02*
X1527559D01*
Y1220627D01*
X1433071D01*
X1432295Y1220472D01*
X1409449D01*
Y1260392D01*
X1442520Y1314961D01*
X1496063D01*
Y1255906D01*
D02*
G37*
G36*
X1527559Y1118110D02*
X1433071D01*
Y1149606D01*
Y1212598D01*
X1527559D01*
Y1118110D01*
D02*
G37*
G36*
X1724409Y925197D02*
X1652771D01*
Y941929D01*
X1651930Y946154D01*
X1649538Y949735D01*
X1645956Y952128D01*
X1641732Y952968D01*
X1637508Y952128D01*
X1633926Y949735D01*
X1631534Y946154D01*
X1630693Y941929D01*
Y925197D01*
X1618110D01*
Y1023622D01*
X1724409D01*
Y925197D01*
D02*
G37*
G36*
X1606299D02*
X1559055D01*
Y1023622D01*
X1606299D01*
Y925197D01*
D02*
G37*
G36*
X1515748Y744095D02*
X1381890D01*
Y830709D01*
X1515748D01*
Y744095D01*
D02*
G37*
G36*
X1515748Y645669D02*
X1455490D01*
X1454424Y645881D01*
X1405512D01*
Y728346D01*
X1515748D01*
Y645669D01*
D02*
G37*
G36*
X1417323Y548278D02*
Y446853D01*
X1413454Y442984D01*
X1411061Y439403D01*
X1410221Y435178D01*
Y187444D01*
X1411061Y183220D01*
X1413454Y179639D01*
X1417323Y175770D01*
Y118110D01*
X1570866D01*
Y24509D01*
X1440453D01*
Y23622D01*
X1418210D01*
X1417323Y24509D01*
X1314961D01*
Y467310D01*
X1315666Y468015D01*
X1317913Y473441D01*
Y475531D01*
X1333088Y490705D01*
X1335481Y494286D01*
X1336321Y498511D01*
Y534840D01*
X1357429Y555948D01*
X1409652D01*
X1417323Y548278D01*
D02*
G37*
D19*
X1700788Y1006889D02*
D03*
X1641733D02*
D03*
X1700788Y941929D02*
D03*
X1641732D02*
D03*
X1582677Y1063977D02*
D03*
X1582678Y884843D02*
D03*
X1641732D02*
D03*
X1700788D02*
D03*
X1582678Y941929D02*
D03*
X1700788Y1063977D02*
D03*
X1641733D02*
D03*
X1582677Y1006889D02*
D03*
D22*
X1046260Y677167D02*
D03*
X1103348D02*
D03*
X1042322Y606299D02*
D03*
X1099410D02*
D03*
X1278544D02*
D03*
X569882D02*
D03*
X105316D02*
D03*
X863188D02*
D03*
X394686D02*
D03*
X900592Y1212599D02*
D03*
X1331692Y677165D02*
D03*
X1274606D02*
D03*
X625000Y677167D02*
D03*
X682086D02*
D03*
X810040D02*
D03*
X867126D02*
D03*
X109254D02*
D03*
X166340D02*
D03*
X391732Y677165D02*
D03*
X448818D02*
D03*
X1335630Y606299D02*
D03*
X626968D02*
D03*
X806102D02*
D03*
X162402D02*
D03*
X337598D02*
D03*
X843506Y1212599D02*
D03*
D23*
X625000Y651435D02*
Y677167D01*
X598425Y645669D02*
X619234D01*
X625000Y651435D01*
X277779Y747830D02*
X337598Y677167D01*
X277779Y826771D02*
X321740Y856300D01*
X277779Y747830D02*
Y826771D01*
X358835Y1137401D02*
X412351Y1083885D01*
X415234Y1081002D01*
X407945Y880385D02*
X415234Y1076742D01*
Y1081002D01*
X383859Y856300D02*
X407945Y880385D01*
X321740Y856300D02*
X383859D01*
X1007596Y702883D02*
Y1104333D01*
X952756Y648043D02*
X1007596Y702883D01*
X952756Y621287D02*
Y648043D01*
X863190Y677165D02*
X867124D01*
X867126Y677167D01*
X682086Y653404D02*
Y677167D01*
X687852Y647638D02*
X831109D01*
X682086Y653404D02*
X687852Y647638D01*
X836875Y653404D02*
Y705456D01*
X831109Y647638D02*
X836875Y653404D01*
X1352857Y566987D02*
X1414225D01*
X1325282Y539413D02*
X1352857Y566987D01*
X1303150Y476378D02*
X1325282Y498511D01*
Y539413D01*
X1414225Y566987D02*
X1496960Y484252D01*
X1433802Y590122D02*
X1478797Y545126D01*
X1433802Y590122D02*
Y604793D01*
X1432295Y606299D02*
X1433802Y604793D01*
X877814Y1114346D02*
X997582D01*
X1007596Y1104333D01*
X909448Y1149607D02*
X1207284D01*
X1282086Y1224409D01*
X389764Y1165354D02*
X408205Y1146913D01*
X831952D01*
X834646Y1149607D01*
X232284Y1137401D02*
X358835D01*
X834646Y238049D02*
Y555456D01*
X840412Y561221D01*
X969138D01*
X981161Y634842D02*
X1057306D01*
X975395Y567478D02*
Y629077D01*
X981161Y634842D01*
X1057306Y634843D02*
X1454424D01*
X1057306Y634842D02*
X1057306Y634843D01*
X969138Y561221D02*
X975395Y567478D01*
X712654Y732228D02*
X757874Y687008D01*
X712654Y732228D02*
Y1037542D01*
X842640Y711221D02*
X904332D01*
X921456Y728347D01*
X836875Y705456D02*
X842640Y711221D01*
X712654Y1037542D02*
X718419Y1043307D01*
X834646D01*
X872048Y51181D02*
X900591Y22638D01*
X1085123D01*
X1097638Y35154D02*
Y414130D01*
X1085123Y22638D02*
X1097638Y35154D01*
Y414130D02*
X1162401Y478893D01*
Y539510D01*
X1168167Y545276D01*
X1171098D01*
X1175035Y549213D01*
X1177165D01*
X1668307Y226377D02*
X1688976Y247046D01*
X1500128Y320867D02*
X1501245Y321984D01*
Y378804D02*
X1502362Y379921D01*
X1501245Y321984D02*
Y378804D01*
X629922Y716987D02*
Y763953D01*
X538504Y643425D02*
X606300Y711221D01*
X166340Y677167D02*
X190944D01*
X224686Y643425D01*
X538504D01*
X606300Y711221D02*
X624156D01*
X629922Y716987D01*
X1446303Y162401D02*
X1632537D01*
X1668307Y198171D01*
X1421260Y187444D02*
Y435178D01*
X1427025Y440944D02*
X1523851D01*
X1421260Y435178D02*
X1427025Y440944D01*
X1421260Y187444D02*
X1446303Y162401D01*
X1668307Y198171D02*
Y226377D01*
X1724409Y440944D02*
X1746203Y419151D01*
Y218364D02*
Y419151D01*
X1740437Y212598D02*
X1746203Y218364D01*
X1688976Y212598D02*
X1740437D01*
X1643085Y200787D02*
Y273623D01*
X208662Y1248031D02*
Y1307087D01*
X283464Y1318897D02*
X354330D01*
X271654Y1248031D02*
Y1307087D01*
X283464Y1318897D01*
X1523851Y440944D02*
X1559054D01*
X1602362Y484252D01*
Y541339D01*
X1739707Y536283D02*
Y597047D01*
X1657341Y634843D02*
X1701911D01*
X1651575Y640608D02*
Y753488D01*
Y640608D02*
X1657341Y634843D01*
X1701911D02*
X1739707Y597047D01*
X1651575Y753488D02*
X1659309Y761221D01*
X1692914D01*
X872048Y1120112D02*
Y1149607D01*
Y1120112D02*
X877814Y1114346D01*
X1478797Y545126D02*
X1498575D01*
X1502362Y541339D01*
X1496960Y484252D02*
X1546596D01*
X1552362Y490017D01*
Y541339D01*
X1500163Y589103D02*
X1640223D01*
X1454424Y634843D02*
X1473195Y616071D01*
X1485465Y603802D02*
X1500163Y589103D01*
X1473195Y615910D02*
Y616071D01*
X1485303Y603802D02*
X1485465D01*
X1473195Y615910D02*
X1485303Y603802D01*
X1512490Y605846D02*
X1685620D01*
X1702362Y589103D01*
X1493864Y624471D02*
X1512490Y605846D01*
X1645988Y547713D02*
Y583338D01*
Y547713D02*
X1652362Y541339D01*
X1640223Y589103D02*
X1645988Y583338D01*
X1702362Y541339D02*
Y589103D01*
X828880Y232283D02*
X834646Y238049D01*
X801042Y232283D02*
X828880D01*
X795276Y202755D02*
Y226518D01*
X801042Y232283D01*
X1736220Y766987D02*
Y848566D01*
X1730455Y854331D02*
X1736220Y848566D01*
X1641732Y884843D02*
X1641732Y884843D01*
Y866142D02*
Y884843D01*
Y866142D02*
X1653543Y854331D01*
X1730455D01*
X1751968Y716987D02*
Y879077D01*
X1700788Y884843D02*
X1746203D01*
X1751968Y879077D01*
X1611221Y852362D02*
Y907620D01*
X1635966Y913386D02*
X1641732Y919152D01*
X1652362Y811221D02*
X1692914D01*
X1611221Y907620D02*
X1616987Y913386D01*
X1611221Y852362D02*
X1652362Y811221D01*
X1616987Y913386D02*
X1635966D01*
X1730455Y761221D02*
X1736220Y766987D01*
X1692914Y761221D02*
X1730455D01*
X1692914Y711221D02*
X1746203D01*
X1751968Y716987D01*
X1641732Y919152D02*
Y941929D01*
X1545136Y884843D02*
X1582678D01*
X1539370Y890609D02*
X1545136Y884843D01*
X834646Y1179197D02*
X841334Y1185885D01*
Y1210427D02*
X843506Y1212599D01*
X841334Y1185885D02*
Y1210427D01*
X834646Y1149607D02*
Y1179197D01*
X909448Y1149607D02*
Y1179197D01*
X901772Y1186873D02*
Y1211419D01*
Y1186873D02*
X909448Y1179197D01*
X900592Y1212599D02*
X901772Y1211419D01*
X1692914Y1287599D02*
X1746203D01*
X1728347Y1104332D02*
X1736220Y1112207D01*
X1695551Y1184963D02*
X1730455D01*
X1736220Y1179197D01*
X1647499Y1104332D02*
X1728347D01*
X1736220Y1112207D02*
Y1179197D01*
X1692914Y1237599D02*
X1746203D01*
X1751968Y1231833D01*
X1746203Y1063977D02*
X1751968Y1069743D01*
X1700788Y1063977D02*
X1746203D01*
X1751968Y1069743D02*
Y1231833D01*
X1641733Y1098567D02*
X1647499Y1104332D01*
X1641733Y1063977D02*
Y1098567D01*
X1692914Y1187599D02*
X1695551Y1184963D01*
X1539370Y890609D02*
Y974409D01*
Y1058211D01*
X1545136Y1063977D01*
X1582677D01*
X1076632Y606299D02*
X1099410D01*
X1070866Y600534D02*
X1076632Y606299D01*
X1070866Y273623D02*
Y600534D01*
X598284Y273623D02*
Y543307D01*
X366142Y538443D02*
X394686Y566987D01*
X366142Y244095D02*
Y538443D01*
X394686Y566987D02*
Y606299D01*
X133858Y518898D02*
Y701239D01*
Y518898D02*
X187770Y464986D01*
X133858Y701239D02*
X149606Y716987D01*
X187770Y464986D02*
X232284D01*
X190944Y765749D02*
X220472Y736221D01*
X187993Y769203D02*
X190944Y766252D01*
Y765749D02*
Y766252D01*
X187993Y769203D02*
Y831635D01*
X185039Y736221D02*
Y738884D01*
X170276Y753648D02*
X185039Y738884D01*
X170276Y753648D02*
Y841536D01*
X149606Y716987D02*
Y1010966D01*
X176041Y1037401D02*
X232284D01*
X149606Y1010966D02*
X176041Y1037401D01*
X185039Y856300D02*
Y981635D01*
X170276Y841536D02*
X185039Y856300D01*
Y981635D02*
X190805Y987401D01*
X232284D01*
X112344D02*
X118110Y981635D01*
Y854331D02*
Y981635D01*
X70866Y987401D02*
X112344D01*
X118110Y854331D02*
X130905Y841536D01*
X193758Y837401D02*
X232284D01*
X187993Y831635D02*
X193758Y837401D01*
X118110Y738884D02*
X130905Y751679D01*
X118110Y736221D02*
Y738884D01*
X130905Y751679D02*
Y841536D01*
X84472Y736221D02*
X115157Y766906D01*
X82677Y736221D02*
X84472D01*
X70866Y837401D02*
X106439D01*
X115157Y828683D01*
Y766906D02*
Y828683D01*
X70866Y759842D02*
Y787401D01*
X47244Y736221D02*
X70866Y759842D01*
X29388Y1037401D02*
X70866D01*
X23622Y1031636D02*
X29388Y1037401D01*
X23622Y488608D02*
Y1031636D01*
Y488608D02*
X47244Y464986D01*
Y464567D02*
Y464986D01*
X606300Y740157D02*
Y788860D01*
X618622Y801182D02*
X679135D01*
X606300Y788860D02*
X618622Y801182D01*
X679135D02*
X696850Y818897D01*
Y1055119D01*
X1212796Y682931D02*
Y763953D01*
X1218562Y677165D02*
X1274606D01*
X1212796Y682931D02*
X1218562Y677165D01*
X921456Y728347D02*
Y763953D01*
X543308Y677165D02*
X606300Y740157D01*
X448818Y677165D02*
X543308D01*
X657480Y1094489D02*
X696850Y1055119D01*
X629922Y1094489D02*
X657480D01*
D24*
X968504Y712158D02*
Y1006354D01*
X854949Y648186D02*
X904532D01*
X968504Y712158D01*
X833662Y626899D02*
X854949Y648186D01*
X833662Y577482D02*
Y626899D01*
X812008Y555828D02*
X833662Y577482D01*
X812008Y517990D02*
Y555828D01*
X232284Y760062D02*
Y787401D01*
X277779Y694662D02*
Y714567D01*
X232284Y760062D02*
X277779Y714567D01*
Y694662D02*
X279528Y692913D01*
X876660Y1010966D02*
X963891D01*
X968504Y1006354D01*
X872048Y1015579D02*
X876660Y1010966D01*
X872048Y1015579D02*
Y1043307D01*
X1552362Y292998D02*
Y379921D01*
X1547749Y288385D02*
X1552362Y292998D01*
X1448818Y288385D02*
X1547749D01*
X1591326Y190083D02*
X1591535Y190292D01*
Y317485D01*
X1602362Y328312D01*
Y379921D01*
X1335630Y606299D02*
Y606425D01*
D25*
X162402Y606299D02*
X208858D01*
X1232284D02*
X1278544D01*
X1099410D02*
X1145670D01*
X996064D02*
X1042322D01*
X1007596Y549491D02*
Y582677D01*
Y549491D02*
X1013780Y543307D01*
X996064Y594209D02*
X1007596Y582677D01*
X996064Y594209D02*
Y606299D01*
X58858D02*
X105316D01*
X522884Y581101D02*
X527558Y576427D01*
X522884Y581101D02*
Y606299D01*
X527558Y557087D02*
X541338Y543307D01*
X527558Y557087D02*
Y576427D01*
X58858Y561221D02*
Y606299D01*
Y561221D02*
X76772Y543307D01*
X863188Y606299D02*
X909448D01*
X759842D02*
X806102D01*
X696850Y552871D02*
Y582677D01*
X655512Y543307D02*
X657480Y541339D01*
X685320D01*
X696850Y582677D02*
X720472Y606299D01*
X759842D01*
X685320Y541339D02*
X696850Y552871D01*
X291142Y606299D02*
X337598D01*
X253936D02*
X291142D01*
X190944Y543307D02*
X253936Y606299D01*
X394686D02*
X441142D01*
X626968D02*
X673228D01*
X1335630D02*
X1381890D01*
X522884D02*
X569882D01*
D26*
X1338582Y1291339D02*
D03*
X86614D02*
D03*
X354330Y771653D02*
D03*
X1685040Y86615D02*
D03*
D27*
X598425Y645669D02*
D03*
X1303150Y476378D02*
D03*
X1331692Y677165D02*
D03*
X1432295Y606299D02*
D03*
X909448Y1043307D02*
D03*
X1103348Y677167D02*
D03*
X1282086Y1224409D02*
D03*
X452756Y765921D02*
D03*
Y740331D02*
D03*
X757874Y114173D02*
D03*
X354330Y1318897D02*
D03*
X1692914Y661417D02*
D03*
X795276Y740331D02*
D03*
X1232284Y606299D02*
D03*
X1484252Y811024D02*
D03*
X1437008Y763779D02*
D03*
X1413386D02*
D03*
X1460630Y787750D02*
D03*
X1437008Y787402D02*
D03*
Y811024D02*
D03*
X1413386D02*
D03*
Y787402D02*
D03*
X1460630Y811371D02*
D03*
X1484252Y763779D02*
D03*
Y787402D02*
D03*
X1460630Y764128D02*
D03*
X1623114Y303149D02*
D03*
X1507874Y244094D02*
D03*
X872048Y51181D02*
D03*
X952756Y90551D02*
D03*
X1688976Y247046D02*
D03*
X1129922Y543307D02*
D03*
X1177165Y549213D02*
D03*
X629922Y763953D02*
D03*
X555118Y787575D02*
D03*
Y765921D02*
D03*
Y740331D02*
D03*
X503938Y763953D02*
D03*
Y787575D02*
D03*
X1522406Y139763D02*
D03*
X1465320D02*
D03*
X1643085Y200787D02*
D03*
X1507874D02*
D03*
X108858Y393701D02*
D03*
X341142D02*
D03*
X573426D02*
D03*
X1282086D02*
D03*
X208662Y1248031D02*
D03*
X232284Y887401D02*
D03*
X1452983Y410711D02*
D03*
X1602362Y379921D02*
D03*
X1523851Y440944D02*
D03*
X795276Y202755D02*
D03*
X806102Y259843D02*
D03*
X863190D02*
D03*
X1692914Y711221D02*
D03*
X1452983Y353625D02*
D03*
X1607511Y630906D02*
D03*
X1746203Y1287599D02*
D03*
X1692914Y1137599D02*
D03*
X1539370Y974409D02*
D03*
X1582678D02*
D03*
X1671260D02*
D03*
X1145670Y606299D02*
D03*
X996064D02*
D03*
X809646Y393701D02*
D03*
X1212796Y763953D02*
D03*
X921456D02*
D03*
X326772Y1027559D02*
D03*
X354330Y1003937D02*
D03*
X250492Y255905D02*
D03*
X717008Y393371D02*
D03*
X452756Y1251969D02*
D03*
X1188976Y101377D02*
D03*
Y124999D02*
D03*
X716536Y66929D02*
D03*
Y41337D02*
D03*
Y114173D02*
D03*
Y161417D02*
D03*
Y185039D02*
D03*
Y208661D02*
D03*
Y346457D02*
D03*
Y370079D02*
D03*
Y320867D02*
D03*
X1188976Y259843D02*
D03*
Y322835D02*
D03*
Y393701D02*
D03*
Y370079D02*
D03*
Y346457D02*
D03*
Y236221D02*
D03*
Y55119D02*
D03*
Y212599D02*
D03*
Y78741D02*
D03*
Y188977D02*
D03*
X250492Y90551D02*
D03*
Y66929D02*
D03*
Y114173D02*
D03*
Y43307D02*
D03*
Y137795D02*
D03*
Y208661D02*
D03*
Y232283D02*
D03*
Y185039D02*
D03*
Y161417D02*
D03*
X1240158Y1224409D02*
D03*
Y1279527D02*
D03*
Y1307087D02*
D03*
Y1334645D02*
D03*
Y1251969D02*
D03*
X795276D02*
D03*
X846456D02*
D03*
X897638D02*
D03*
X1137796Y1334645D02*
D03*
X1035434D02*
D03*
X1086614D02*
D03*
X1188976D02*
D03*
X606300D02*
D03*
X657480D02*
D03*
X555118D02*
D03*
X657480Y1279527D02*
D03*
Y1307087D02*
D03*
Y1224409D02*
D03*
Y1251969D02*
D03*
X1035434Y1279527D02*
D03*
Y1307087D02*
D03*
Y1224409D02*
D03*
Y1251969D02*
D03*
X744094Y1279527D02*
D03*
Y1307087D02*
D03*
Y1224409D02*
D03*
Y1251969D02*
D03*
X948820D02*
D03*
Y1224409D02*
D03*
Y1307087D02*
D03*
Y1279527D02*
D03*
X846456Y1334645D02*
D03*
X744094D02*
D03*
X795276D02*
D03*
X948820D02*
D03*
X897638D02*
D03*
Y1307087D02*
D03*
Y1279527D02*
D03*
X846456D02*
D03*
Y1307087D02*
D03*
X795276D02*
D03*
Y1279527D02*
D03*
X1137796Y1224409D02*
D03*
X1188976D02*
D03*
X1086614D02*
D03*
Y1251969D02*
D03*
X1137796D02*
D03*
X1188976D02*
D03*
X1086614Y1279527D02*
D03*
X1137796Y1307087D02*
D03*
Y1279527D02*
D03*
X1188976D02*
D03*
Y1307087D02*
D03*
X1086614D02*
D03*
X555118Y1224409D02*
D03*
X606300D02*
D03*
X503938D02*
D03*
Y1251969D02*
D03*
X555118D02*
D03*
X606300D02*
D03*
X503938Y1279527D02*
D03*
Y1307087D02*
D03*
X555118D02*
D03*
Y1279527D02*
D03*
X606300D02*
D03*
Y1307087D02*
D03*
X1240159Y952755D02*
D03*
Y917323D02*
D03*
Y846457D02*
D03*
Y881889D02*
D03*
Y1023621D02*
D03*
Y988189D02*
D03*
X1188977D02*
D03*
Y881889D02*
D03*
Y846457D02*
D03*
Y917323D02*
D03*
Y952755D02*
D03*
X1137797Y988189D02*
D03*
Y881889D02*
D03*
Y846457D02*
D03*
Y917323D02*
D03*
Y952755D02*
D03*
X1086615Y988189D02*
D03*
Y881889D02*
D03*
Y846457D02*
D03*
Y917323D02*
D03*
Y952755D02*
D03*
X1035435D02*
D03*
Y917323D02*
D03*
Y846457D02*
D03*
Y881889D02*
D03*
Y1023621D02*
D03*
Y988189D02*
D03*
X909448Y606299D02*
D03*
X897639Y988189D02*
D03*
X795277D02*
D03*
X846457D02*
D03*
X795276Y1102363D02*
D03*
X846456D02*
D03*
X1421260Y708661D02*
D03*
Y661417D02*
D03*
X1444882Y708661D02*
D03*
X1468504Y685039D02*
D03*
X1492126Y661417D02*
D03*
X1444882Y661417D02*
D03*
X1421260Y685039D02*
D03*
X1444882D02*
D03*
X1468504Y661417D02*
D03*
X1492126Y685039D02*
D03*
Y708661D02*
D03*
X1468504Y708661D02*
D03*
X744094Y1102363D02*
D03*
Y1078741D02*
D03*
X744095Y988189D02*
D03*
Y881889D02*
D03*
Y846457D02*
D03*
Y917323D02*
D03*
Y952755D02*
D03*
X795277D02*
D03*
Y917323D02*
D03*
Y846457D02*
D03*
Y881889D02*
D03*
X795276Y1078741D02*
D03*
X846457Y952755D02*
D03*
Y917323D02*
D03*
Y846457D02*
D03*
Y881889D02*
D03*
X846456Y1078741D02*
D03*
X897639Y952755D02*
D03*
Y917323D02*
D03*
Y846457D02*
D03*
Y881889D02*
D03*
X948819Y988189D02*
D03*
Y881889D02*
D03*
Y846457D02*
D03*
Y917323D02*
D03*
Y952755D02*
D03*
X1452756Y1185039D02*
D03*
X1480316Y1161417D02*
D03*
X1507874Y1185039D02*
D03*
Y1161417D02*
D03*
X1480316Y1185039D02*
D03*
X1452756Y1161417D02*
D03*
X1507874Y1137795D02*
D03*
X1480316D02*
D03*
X1452756D02*
D03*
X1507874Y1070865D02*
D03*
X1397638Y1094489D02*
D03*
X1425196Y1070865D02*
D03*
X1045866Y677167D02*
D03*
X809646D02*
D03*
X391142D02*
D03*
X629922Y1094489D02*
D03*
X759842Y606299D02*
D03*
X291142D02*
D03*
X441142D02*
D03*
X1425196Y1260391D02*
D03*
X1452564Y1236769D02*
D03*
X1480124D02*
D03*
X1507682D02*
D03*
X1425196D02*
D03*
X1480124Y1260391D02*
D03*
Y1284013D02*
D03*
X1452564D02*
D03*
Y1260391D02*
D03*
X657481Y952755D02*
D03*
Y917323D02*
D03*
Y846457D02*
D03*
Y881889D02*
D03*
Y1023621D02*
D03*
Y988189D02*
D03*
X606301D02*
D03*
Y1023621D02*
D03*
Y881889D02*
D03*
Y846457D02*
D03*
Y917323D02*
D03*
Y952755D02*
D03*
X555118Y1102363D02*
D03*
Y1066929D02*
D03*
X555119Y988189D02*
D03*
Y1023621D02*
D03*
Y881889D02*
D03*
Y846457D02*
D03*
Y917323D02*
D03*
Y952755D02*
D03*
X503938Y1102363D02*
D03*
Y1066929D02*
D03*
X503939Y988189D02*
D03*
Y1023621D02*
D03*
Y881889D02*
D03*
Y846457D02*
D03*
Y917323D02*
D03*
Y952755D02*
D03*
X452757D02*
D03*
Y917323D02*
D03*
Y846457D02*
D03*
Y881889D02*
D03*
Y1023621D02*
D03*
Y988189D02*
D03*
X452756Y1066929D02*
D03*
Y1102363D02*
D03*
X326772Y929133D02*
D03*
X484252Y43307D02*
D03*
X1539370Y102363D02*
D03*
X1425196Y78741D02*
D03*
X673228Y606299D02*
D03*
X744094Y787401D02*
D03*
X503938Y740331D02*
D03*
X1381890Y606299D02*
D03*
X1425196Y102363D02*
D03*
X1519682D02*
D03*
X1332086Y189963D02*
D03*
Y237207D02*
D03*
Y55119D02*
D03*
Y213585D02*
D03*
Y102363D02*
D03*
Y260829D02*
D03*
Y78741D02*
D03*
Y125985D02*
D03*
X952756Y322835D02*
D03*
Y346457D02*
D03*
Y417323D02*
D03*
Y393701D02*
D03*
Y370079D02*
D03*
Y299213D02*
D03*
X952754Y139763D02*
D03*
X952756Y43307D02*
D03*
Y66929D02*
D03*
X484252Y90551D02*
D03*
Y66929D02*
D03*
Y114173D02*
D03*
Y137795D02*
D03*
Y208661D02*
D03*
Y232283D02*
D03*
Y255905D02*
D03*
Y185039D02*
D03*
Y161417D02*
D03*
X109254D02*
D03*
Y185039D02*
D03*
Y255905D02*
D03*
Y232283D02*
D03*
Y208661D02*
D03*
Y137795D02*
D03*
Y43307D02*
D03*
Y114173D02*
D03*
Y66929D02*
D03*
Y90551D02*
D03*
X1035434Y787575D02*
D03*
Y765921D02*
D03*
Y740331D02*
D03*
X744094Y740157D02*
D03*
Y765747D02*
D03*
X452756Y787575D02*
D03*
X1137796Y765921D02*
D03*
X1086614Y787749D02*
D03*
Y740505D02*
D03*
X1137796Y787575D02*
D03*
Y740331D02*
D03*
X1086614Y764127D02*
D03*
X846456Y765747D02*
D03*
X795276Y787575D02*
D03*
X846456Y787401D02*
D03*
Y740157D02*
D03*
X795276Y763953D02*
D03*
X1045866Y393701D02*
D03*
D28*
X337598Y677167D02*
D03*
X952756Y621287D02*
D03*
X812008Y517990D02*
D03*
X863190Y677165D02*
D03*
X389764Y1165354D02*
D03*
X757874Y687008D02*
D03*
X279528Y692913D02*
D03*
X208858Y606299D02*
D03*
X1643085Y273623D02*
D03*
X855314Y105315D02*
D03*
X812008D02*
D03*
X855314Y148621D02*
D03*
X812008D02*
D03*
X909646Y139763D02*
D03*
X1500128Y320867D02*
D03*
X1448818Y288385D02*
D03*
X1591326Y190083D02*
D03*
X1724409Y440944D02*
D03*
X1688976Y212598D02*
D03*
X354330Y1240157D02*
D03*
X1652362Y379921D02*
D03*
X1739707Y536283D02*
D03*
X1493864Y624471D02*
D03*
X1702362Y379921D02*
D03*
X1700788Y1063977D02*
D03*
X1692914Y1187599D02*
D03*
X1070866Y273623D02*
D03*
Y237207D02*
D03*
Y58073D02*
D03*
X598284Y543307D02*
D03*
Y273623D02*
D03*
X366142Y244095D02*
D03*
X232284Y1087401D02*
D03*
Y464986D02*
D03*
X220472Y736221D02*
D03*
X185039D02*
D03*
X232284Y937401D02*
D03*
X118110Y736221D02*
D03*
X82677D02*
D03*
X47244D02*
D03*
X70866Y887401D02*
D03*
Y937401D02*
D03*
X47244Y464567D02*
D03*
X109254Y677167D02*
D03*
X522884Y606299D02*
D03*
X58858D02*
D03*
X70866Y1087401D02*
D03*
X381890Y1027559D02*
D03*
X299212D02*
D03*
Y1003937D02*
D03*
Y1055117D02*
D03*
X326772Y1003937D02*
D03*
X354330Y1027559D02*
D03*
X503938Y1334645D02*
D03*
X354330Y1055119D02*
D03*
X326772D02*
D03*
X381890D02*
D03*
Y1003937D02*
D03*
X452756Y1279527D02*
D03*
Y1224409D02*
D03*
Y1307087D02*
D03*
Y1338579D02*
D03*
X1397638Y1070865D02*
D03*
X1425196Y1094489D02*
D03*
X1452756Y1070865D02*
D03*
Y1094489D02*
D03*
X1480316D02*
D03*
Y1070865D02*
D03*
X1507874Y1094489D02*
D03*
X299212Y929133D02*
D03*
X381890Y952755D02*
D03*
X354330Y929133D02*
D03*
X299212Y952755D02*
D03*
Y905511D02*
D03*
X326772Y952755D02*
D03*
Y905511D02*
D03*
X354330Y952755D02*
D03*
Y905511D02*
D03*
X381890D02*
D03*
Y929133D02*
D03*
D34*
X1692914Y711221D02*
D03*
Y761221D02*
D03*
Y661221D02*
D03*
Y811221D02*
D03*
X1480316D02*
D03*
Y761221D02*
D03*
Y661221D02*
D03*
Y711221D02*
D03*
Y1187599D02*
D03*
Y1137599D02*
D03*
Y1287599D02*
D03*
Y1237599D02*
D03*
X1692914Y1287599D02*
D03*
Y1137599D02*
D03*
Y1237599D02*
D03*
Y1187599D02*
D03*
D35*
X70866Y1137401D02*
D03*
Y1087401D02*
D03*
X232284Y1137401D02*
D03*
Y1087401D02*
D03*
X70866Y787401D02*
D03*
X232284D02*
D03*
Y837401D02*
D03*
Y887401D02*
D03*
X70866Y837401D02*
D03*
Y887401D02*
D03*
X232284Y937401D02*
D03*
X70866D02*
D03*
X232284Y987401D02*
D03*
Y1037401D02*
D03*
X70866Y987401D02*
D03*
Y1037401D02*
D03*
D36*
X1127952Y543307D02*
D03*
X541338D02*
D03*
X76772D02*
D03*
X1013780D02*
D03*
X655512D02*
D03*
X190944D02*
D03*
D37*
X1236220Y492125D02*
D03*
X763780D02*
D03*
X1236220Y358267D02*
D03*
Y224409D02*
D03*
X1141732Y90551D02*
D03*
X1236220D02*
D03*
X1141732Y358267D02*
D03*
X763780D02*
D03*
X669292D02*
D03*
X1141732Y224409D02*
D03*
X295276Y492125D02*
D03*
Y358267D02*
D03*
X204724D02*
D03*
Y224409D02*
D03*
X669292D02*
D03*
Y90551D02*
D03*
X295276Y224409D02*
D03*
Y90551D02*
D03*
X204724D02*
D03*
X1377952Y492125D02*
D03*
Y358267D02*
D03*
X1000000D02*
D03*
X905512Y492125D02*
D03*
Y358267D02*
D03*
X1377952Y224409D02*
D03*
Y90551D02*
D03*
X1000000Y224409D02*
D03*
Y90551D02*
D03*
X437008Y492125D02*
D03*
X527560Y358267D02*
D03*
X437008D02*
D03*
X62992D02*
D03*
X527560Y90551D02*
D03*
Y224409D02*
D03*
X437008D02*
D03*
X62992D02*
D03*
X437008Y90551D02*
D03*
X62992D02*
D03*
D38*
X1507874Y200787D02*
D03*
Y59055D02*
D03*
D39*
X208662Y1248031D02*
D03*
Y1307087D02*
D03*
X271654D02*
D03*
Y1248031D02*
D03*
D40*
X909448Y1149607D02*
D03*
X834646D02*
D03*
X872048D02*
D03*
X909448Y1043307D02*
D03*
X872048D02*
D03*
X834646D02*
D03*
D41*
X354330Y1318897D02*
D03*
Y1240157D02*
D03*
D42*
X1702362Y379921D02*
D03*
Y541339D02*
D03*
X1652362D02*
D03*
X1602362D02*
D03*
X1652362Y379921D02*
D03*
X1602362D02*
D03*
X1552362Y541339D02*
D03*
X1502362D02*
D03*
X1552362Y379921D02*
D03*
X1502362D02*
D03*
%TF.MD5,ba91220c9a9e5eab85d47f49ff4fed7f*%
M02*
