%TF.GenerationSoftware,Altium Limited,Altium Designer,21.4.1 (30)*%
G04 Layer_Physical_Order=4*
G04 Layer_Color=8388736*
%FSLAX26Y26*%
%MOIN*%
%TF.SameCoordinates,1A054405-282A-4FF3-8963-BB1B344CA64D*%
%TF.FilePolarity,Negative*%
%TF.FileFunction,Copper,L4,Inr,Plane*%
%TF.Part,Single*%
G01*
G75*
%TA.AperFunction,NonConductor*%
%ADD29C,0.010000*%
%ADD30C,0.040000*%
%TA.AperFunction,ViaPad*%
%ADD31C,0.133858*%
%ADD32C,0.047244*%
D29*
X1448818Y1314961D02*
Y1377952D01*
X1591326Y0D02*
Y260829D01*
X1282086D02*
X1591326D01*
X1282086D02*
Y618111D01*
X1503746Y736221D02*
X1527559D01*
X1370078Y834645D02*
Y1118111D01*
X19686Y499999D02*
Y500001D01*
X1527559Y736221D02*
Y1118111D01*
X1370078D02*
X1527559D01*
X1527560D02*
Y1204725D01*
X1433070Y1118111D02*
X1527560D01*
X1011812Y811023D02*
X1259842D01*
X1370078Y736221D02*
Y1118111D01*
Y736221D02*
X1527560D01*
Y618111D02*
Y736221D01*
X1259842Y618111D02*
X1527560D01*
X1259842D02*
Y1051181D01*
X1011812D02*
X1259842D01*
X1011812Y811023D02*
Y1051181D01*
X700787Y811023D02*
X1011812D01*
X1448818Y1314961D02*
X1452756D01*
X1338582Y1204725D02*
X1448818Y1314961D01*
X425197Y1204725D02*
X1338582D01*
X425197Y811023D02*
Y1204725D01*
Y811023D02*
X700787D01*
X1452756Y1314961D02*
X1527560D01*
Y1204725D02*
Y1314961D01*
X1433070Y1204725D02*
X1527560D01*
X1433070Y1118111D02*
Y1204725D01*
X1370078Y1118111D02*
X1433070D01*
X1362204Y1125985D02*
X1370078Y1118111D01*
X700787Y1125985D02*
X1362204D01*
X700787Y811023D02*
Y1125985D01*
D30*
X0Y0D02*
X1771653D01*
Y1377953D01*
X0D02*
X1771653D01*
X0Y0D02*
Y1377953D01*
D31*
X1338582Y1291339D02*
D03*
X86614D02*
D03*
X354330Y771653D02*
D03*
X1685040Y86615D02*
D03*
D32*
X598425Y645669D02*
D03*
X337598Y677167D02*
D03*
X952756Y621287D02*
D03*
X812008Y517990D02*
D03*
X863190Y677165D02*
D03*
X1303150Y476378D02*
D03*
X1331692Y677165D02*
D03*
X1432295Y606299D02*
D03*
X909448Y1043307D02*
D03*
X1103348Y677167D02*
D03*
X1282086Y1224409D02*
D03*
X389764Y1165354D02*
D03*
X757874Y687008D02*
D03*
X452756Y765921D02*
D03*
Y740331D02*
D03*
X757874Y114173D02*
D03*
X354330Y1318897D02*
D03*
X1692914Y661417D02*
D03*
X795276Y740331D02*
D03*
X208858Y606299D02*
D03*
X1232284D02*
D03*
X1643085Y273623D02*
D03*
X1623114Y303149D02*
D03*
X1507874Y244094D02*
D03*
X855314Y105315D02*
D03*
X812008D02*
D03*
X855314Y148621D02*
D03*
X812008D02*
D03*
X872048Y51181D02*
D03*
X909646Y139763D02*
D03*
X952756Y90551D02*
D03*
X1688976Y247046D02*
D03*
X1129922Y543307D02*
D03*
X1177165Y549213D02*
D03*
X1500128Y320867D02*
D03*
X1448818Y288385D02*
D03*
X629922Y763953D02*
D03*
X555118Y787575D02*
D03*
Y765921D02*
D03*
Y740331D02*
D03*
X503938Y763953D02*
D03*
Y787575D02*
D03*
X1522406Y139763D02*
D03*
X1465320D02*
D03*
X1591326Y190083D02*
D03*
X1724409Y440944D02*
D03*
X1688976Y212598D02*
D03*
X1643085Y200787D02*
D03*
X108858Y393701D02*
D03*
X341142D02*
D03*
X573426D02*
D03*
X1282086D02*
D03*
X208662Y1248031D02*
D03*
X354330Y1240157D02*
D03*
X232284Y887401D02*
D03*
X1452983Y410711D02*
D03*
X1652362Y379921D02*
D03*
X1602362D02*
D03*
X1523851Y440944D02*
D03*
X1739707Y536283D02*
D03*
X1493864Y624471D02*
D03*
X1702362Y379921D02*
D03*
X795276Y202755D02*
D03*
X806102Y259843D02*
D03*
X863190D02*
D03*
X1692914Y711221D02*
D03*
X1452983Y353625D02*
D03*
X1700788Y1063977D02*
D03*
X1692914Y1187599D02*
D03*
X1607511Y630906D02*
D03*
X1746203Y1287599D02*
D03*
X1692914Y1137599D02*
D03*
X1539370Y974409D02*
D03*
X1671260D02*
D03*
X1145670Y606299D02*
D03*
X996064D02*
D03*
X1070866Y273623D02*
D03*
Y237207D02*
D03*
Y58073D02*
D03*
X598284Y543307D02*
D03*
Y273623D02*
D03*
X809646Y393701D02*
D03*
X366142Y244095D02*
D03*
X232284Y1087401D02*
D03*
Y464986D02*
D03*
X220472Y736221D02*
D03*
X185039D02*
D03*
X232284Y937401D02*
D03*
X118110Y736221D02*
D03*
X82677D02*
D03*
X47244D02*
D03*
X70866Y887401D02*
D03*
Y937401D02*
D03*
X47244Y464567D02*
D03*
X109254Y677167D02*
D03*
X522884Y606299D02*
D03*
X58858D02*
D03*
X70866Y1087401D02*
D03*
X1212796Y763953D02*
D03*
X921456D02*
D03*
X909448Y606299D02*
D03*
X1452756Y1185039D02*
D03*
X1480316Y1161417D02*
D03*
X1507874Y1185039D02*
D03*
Y1161417D02*
D03*
X1480316Y1185039D02*
D03*
X1452756Y1161417D02*
D03*
X1507874Y1137795D02*
D03*
X1480316D02*
D03*
X1452756D02*
D03*
X1045866Y677167D02*
D03*
X809646D02*
D03*
X391142D02*
D03*
X629922Y1094489D02*
D03*
X759842Y606299D02*
D03*
X291142D02*
D03*
X441142D02*
D03*
X299212Y929133D02*
D03*
X381890Y952755D02*
D03*
X354330Y929133D02*
D03*
X299212Y952755D02*
D03*
Y905511D02*
D03*
X326772Y952755D02*
D03*
Y905511D02*
D03*
X354330Y952755D02*
D03*
Y905511D02*
D03*
X381890D02*
D03*
Y929133D02*
D03*
X326772D02*
D03*
X484252Y43307D02*
D03*
X1539370Y102363D02*
D03*
X1425196Y78741D02*
D03*
X673228Y606299D02*
D03*
X744094Y787401D02*
D03*
X503938Y740331D02*
D03*
X1425196Y102363D02*
D03*
X1519682D02*
D03*
X1332086Y189963D02*
D03*
Y237207D02*
D03*
Y55119D02*
D03*
Y213585D02*
D03*
Y102363D02*
D03*
Y260829D02*
D03*
Y78741D02*
D03*
Y125985D02*
D03*
X952756Y322835D02*
D03*
Y346457D02*
D03*
Y417323D02*
D03*
Y393701D02*
D03*
Y370079D02*
D03*
Y299213D02*
D03*
X952754Y139763D02*
D03*
X952756Y43307D02*
D03*
Y66929D02*
D03*
X484252Y90551D02*
D03*
Y66929D02*
D03*
Y114173D02*
D03*
Y137795D02*
D03*
Y208661D02*
D03*
Y232283D02*
D03*
Y255905D02*
D03*
Y185039D02*
D03*
Y161417D02*
D03*
X109254D02*
D03*
Y185039D02*
D03*
Y255905D02*
D03*
Y232283D02*
D03*
Y208661D02*
D03*
Y137795D02*
D03*
Y43307D02*
D03*
Y114173D02*
D03*
Y66929D02*
D03*
Y90551D02*
D03*
X1035434Y787575D02*
D03*
Y765921D02*
D03*
Y740331D02*
D03*
X744094Y740157D02*
D03*
Y765747D02*
D03*
X452756Y787575D02*
D03*
X1137796Y765921D02*
D03*
X1086614Y787749D02*
D03*
Y740505D02*
D03*
X1137796Y787575D02*
D03*
Y740331D02*
D03*
X1086614Y764127D02*
D03*
X846456Y765747D02*
D03*
X795276Y787575D02*
D03*
X846456Y787401D02*
D03*
Y740157D02*
D03*
X795276Y763953D02*
D03*
X1045866Y393701D02*
D03*
%TF.MD5,7b856d2979ffdb0ed78cb9910808214b*%
M02*
