%TF.GenerationSoftware,Altium Limited,Altium Designer,21.4.1 (30)*%
G04 Layer_Color=8388736*
%FSLAX26Y26*%
%MOIN*%
%TF.SameCoordinates,1A054405-282A-4FF3-8963-BB1B344CA64D*%
%TF.FilePolarity,Negative*%
%TF.FileFunction,Soldermask,Top*%
%TF.Part,Single*%
G01*
G75*
%TA.AperFunction,SMDPad,CuDef*%
%ADD14R,0.018000X0.042000*%
%ADD48R,0.033591X0.043433*%
%ADD54R,0.043433X0.033591*%
%TA.AperFunction,ViaPad*%
%ADD59C,0.133984*%
%ADD60C,0.025716*%
%ADD61C,0.027685*%
%TA.AperFunction,SMDPad,CuDef*%
%ADD62R,0.031622X0.069024*%
%ADD63O,0.039496X0.019811*%
%ADD64O,0.019811X0.039496*%
%ADD65R,0.112331X0.112331*%
%ADD66R,0.033591X0.021779*%
%ADD67R,0.069024X0.102488*%
G04:AMPARAMS|DCode=68|XSize=94.614mil|YSize=228.472mil|CornerRadius=8.331mil|HoleSize=0mil|Usage=FLASHONLY|Rotation=90.000|XOffset=0mil|YOffset=0mil|HoleType=Round|Shape=RoundedRectangle|*
%AMROUNDEDRECTD68*
21,1,0.094614,0.211811,0,0,90.0*
21,1,0.077953,0.228472,0,0,90.0*
1,1,0.016661,0.105906,0.038976*
1,1,0.016661,0.105906,-0.038976*
1,1,0.016661,-0.105906,-0.038976*
1,1,0.016661,-0.105906,0.038976*
%
%ADD68ROUNDEDRECTD68*%
G04:AMPARAMS|DCode=69|XSize=55.244mil|YSize=133.984mil|CornerRadius=6.362mil|HoleSize=0mil|Usage=FLASHONLY|Rotation=90.000|XOffset=0mil|YOffset=0mil|HoleType=Round|Shape=RoundedRectangle|*
%AMROUNDEDRECTD69*
21,1,0.055244,0.121260,0,0,90.0*
21,1,0.042520,0.133984,0,0,90.0*
1,1,0.012724,0.060630,0.021260*
1,1,0.012724,0.060630,-0.021260*
1,1,0.012724,-0.060630,-0.021260*
1,1,0.012724,-0.060630,0.021260*
%
%ADD69ROUNDEDRECTD69*%
%ADD70R,0.015874X0.027685*%
%ADD71R,0.027685X0.015874*%
G36*
X924457Y1162662D02*
X768457D01*
Y1311662D01*
X924457D01*
Y1162662D01*
D02*
G37*
G36*
X1215795Y1162661D02*
X1059795D01*
Y1311661D01*
X1215795D01*
Y1162661D01*
D02*
G37*
G36*
X633118D02*
X477118D01*
Y1311661D01*
X633118D01*
Y1162661D01*
D02*
G37*
G36*
X924457Y831953D02*
X768457D01*
Y980953D01*
X924457D01*
Y831953D01*
D02*
G37*
G36*
X1215795Y831953D02*
X1059795D01*
Y980953D01*
X1215795D01*
Y831953D01*
D02*
G37*
G36*
X633118D02*
X477118D01*
Y980953D01*
X633118D01*
Y831953D01*
D02*
G37*
D14*
X630118Y763953D02*
D03*
X480118D02*
D03*
X530118D02*
D03*
X580118D02*
D03*
Y991953D02*
D03*
X480118D02*
D03*
X530118D02*
D03*
X630118D02*
D03*
X1162796Y1322661D02*
D03*
X1112796D02*
D03*
X1212796D02*
D03*
X1062796D02*
D03*
X821456D02*
D03*
X771456D02*
D03*
X871456D02*
D03*
X580118D02*
D03*
X630118D02*
D03*
X921456D02*
D03*
X530118D02*
D03*
X480118D02*
D03*
X1212796Y991953D02*
D03*
X1162796Y1094661D02*
D03*
X1112796Y991953D02*
D03*
Y1094661D02*
D03*
X1162796Y991953D02*
D03*
X1062796D02*
D03*
Y1094661D02*
D03*
X921456Y991953D02*
D03*
X871456Y1094661D02*
D03*
Y991953D02*
D03*
X821456D02*
D03*
Y1094661D02*
D03*
X771456D02*
D03*
Y991953D02*
D03*
X580118Y1094661D02*
D03*
X530118D02*
D03*
X480118D02*
D03*
X1162796Y763953D02*
D03*
X1112796D02*
D03*
X821456D02*
D03*
X1062796D02*
D03*
X871456D02*
D03*
X771456D02*
D03*
X921456D02*
D03*
X1212796D02*
D03*
Y1094661D02*
D03*
X921456D02*
D03*
X630118D02*
D03*
D48*
X806102Y259843D02*
D03*
X1522406Y139763D02*
D03*
X863190Y259843D02*
D03*
X1465320Y139763D02*
D03*
X1278544Y322835D02*
D03*
X1335630D02*
D03*
X1042322D02*
D03*
X1099410D02*
D03*
X569882D02*
D03*
X626968D02*
D03*
X806102D02*
D03*
X863190D02*
D03*
X105316D02*
D03*
X162402D02*
D03*
X337598D02*
D03*
X394686D02*
D03*
D54*
X1452757Y191930D02*
D03*
Y249016D02*
D03*
X1688976Y247046D02*
D03*
Y304132D02*
D03*
X1011812Y56104D02*
D03*
Y233269D02*
D03*
X653545Y233267D02*
D03*
X653544Y56101D02*
D03*
X1129922Y233269D02*
D03*
X1070865D02*
D03*
X1129922Y56104D02*
D03*
X1070866D02*
D03*
X594488Y233267D02*
D03*
X535434D02*
D03*
X594488Y56101D02*
D03*
X535434D02*
D03*
X1665581Y630906D02*
D03*
X1607511D02*
D03*
X1452983Y353625D02*
D03*
Y410711D02*
D03*
X594488Y113187D02*
D03*
X653544D02*
D03*
X1548455Y630906D02*
D03*
Y573818D02*
D03*
X1452983Y524607D02*
D03*
Y467519D02*
D03*
X594488Y176179D02*
D03*
X653545D02*
D03*
X1724635Y630906D02*
D03*
Y573818D02*
D03*
X1724637Y497048D02*
D03*
Y439960D02*
D03*
X1070865Y176181D02*
D03*
X1011812D02*
D03*
X1070866Y113190D02*
D03*
X1011812Y113190D02*
D03*
X535434Y113187D02*
D03*
X1607511Y573818D02*
D03*
X535434Y176179D02*
D03*
X1665581Y573818D02*
D03*
X1129922Y176181D02*
D03*
Y113190D02*
D03*
D59*
X1338582Y1291339D02*
D03*
X86614D02*
D03*
X354330Y771653D02*
D03*
X1685040Y86615D02*
D03*
D60*
X598425Y645669D02*
D03*
X1303150Y476378D02*
D03*
X1331692Y677165D02*
D03*
X1432295Y606299D02*
D03*
X909448Y1043307D02*
D03*
X1103348Y677167D02*
D03*
X1282086Y1224409D02*
D03*
X452756Y765921D02*
D03*
Y740331D02*
D03*
X757874Y114173D02*
D03*
X354330Y1318897D02*
D03*
X1692914Y661417D02*
D03*
X795276Y740331D02*
D03*
X1232284Y606299D02*
D03*
X1484252Y811024D02*
D03*
X1437008Y763779D02*
D03*
X1413386D02*
D03*
X1460630Y787750D02*
D03*
X1437008Y787402D02*
D03*
Y811024D02*
D03*
X1413386D02*
D03*
Y787402D02*
D03*
X1460630Y811371D02*
D03*
X1484252Y763779D02*
D03*
Y787402D02*
D03*
X1460630Y764128D02*
D03*
X1623114Y303149D02*
D03*
X1507874Y244094D02*
D03*
X872048Y51181D02*
D03*
X952756Y90551D02*
D03*
X1688976Y247046D02*
D03*
X1129922Y543307D02*
D03*
X1177165Y549213D02*
D03*
X629922Y763953D02*
D03*
X555118Y787575D02*
D03*
Y765921D02*
D03*
Y740331D02*
D03*
X503938Y763953D02*
D03*
Y787575D02*
D03*
X1522406Y139763D02*
D03*
X1465320D02*
D03*
X1643085Y200787D02*
D03*
X1507874D02*
D03*
X108858Y393701D02*
D03*
X341142D02*
D03*
X573426D02*
D03*
X1282086D02*
D03*
X208662Y1248031D02*
D03*
X232284Y887401D02*
D03*
X1452983Y410711D02*
D03*
X1602362Y379921D02*
D03*
X1523851Y440944D02*
D03*
X795276Y202755D02*
D03*
X806102Y259843D02*
D03*
X863190D02*
D03*
X1692914Y711221D02*
D03*
X1452983Y353625D02*
D03*
X1607511Y630906D02*
D03*
X1746203Y1287599D02*
D03*
X1692914Y1137599D02*
D03*
X1539370Y974409D02*
D03*
X1582678D02*
D03*
X1671260D02*
D03*
X1145670Y606299D02*
D03*
X996064D02*
D03*
X809646Y393701D02*
D03*
X1212796Y763953D02*
D03*
X921456D02*
D03*
X326772Y1027559D02*
D03*
X354330Y1003937D02*
D03*
X250492Y255905D02*
D03*
X717008Y393371D02*
D03*
X452756Y1251969D02*
D03*
X1188976Y101377D02*
D03*
Y124999D02*
D03*
X716536Y66929D02*
D03*
Y41337D02*
D03*
Y114173D02*
D03*
Y161417D02*
D03*
Y185039D02*
D03*
Y208661D02*
D03*
Y346457D02*
D03*
Y370079D02*
D03*
Y320867D02*
D03*
X1188976Y259843D02*
D03*
Y322835D02*
D03*
Y393701D02*
D03*
Y370079D02*
D03*
Y346457D02*
D03*
Y236221D02*
D03*
Y55119D02*
D03*
Y212599D02*
D03*
Y78741D02*
D03*
Y188977D02*
D03*
X250492Y90551D02*
D03*
Y66929D02*
D03*
Y114173D02*
D03*
Y43307D02*
D03*
Y137795D02*
D03*
Y208661D02*
D03*
Y232283D02*
D03*
Y185039D02*
D03*
Y161417D02*
D03*
X1240158Y1224409D02*
D03*
Y1279527D02*
D03*
Y1307087D02*
D03*
Y1334645D02*
D03*
Y1251969D02*
D03*
X795276D02*
D03*
X846456D02*
D03*
X897638D02*
D03*
X1137796Y1334645D02*
D03*
X1035434D02*
D03*
X1086614D02*
D03*
X1188976D02*
D03*
X606300D02*
D03*
X657480D02*
D03*
X555118D02*
D03*
X657480Y1279527D02*
D03*
Y1307087D02*
D03*
Y1224409D02*
D03*
Y1251969D02*
D03*
X1035434Y1279527D02*
D03*
Y1307087D02*
D03*
Y1224409D02*
D03*
Y1251969D02*
D03*
X744094Y1279527D02*
D03*
Y1307087D02*
D03*
Y1224409D02*
D03*
Y1251969D02*
D03*
X948820D02*
D03*
Y1224409D02*
D03*
Y1307087D02*
D03*
Y1279527D02*
D03*
X846456Y1334645D02*
D03*
X744094D02*
D03*
X795276D02*
D03*
X948820D02*
D03*
X897638D02*
D03*
Y1307087D02*
D03*
Y1279527D02*
D03*
X846456D02*
D03*
Y1307087D02*
D03*
X795276D02*
D03*
Y1279527D02*
D03*
X1137796Y1224409D02*
D03*
X1188976D02*
D03*
X1086614D02*
D03*
Y1251969D02*
D03*
X1137796D02*
D03*
X1188976D02*
D03*
X1086614Y1279527D02*
D03*
X1137796Y1307087D02*
D03*
Y1279527D02*
D03*
X1188976D02*
D03*
Y1307087D02*
D03*
X1086614D02*
D03*
X555118Y1224409D02*
D03*
X606300D02*
D03*
X503938D02*
D03*
Y1251969D02*
D03*
X555118D02*
D03*
X606300D02*
D03*
X503938Y1279527D02*
D03*
Y1307087D02*
D03*
X555118D02*
D03*
Y1279527D02*
D03*
X606300D02*
D03*
Y1307087D02*
D03*
X1240159Y952755D02*
D03*
Y917323D02*
D03*
Y846457D02*
D03*
Y881889D02*
D03*
Y1023621D02*
D03*
Y988189D02*
D03*
X1188977D02*
D03*
Y881889D02*
D03*
Y846457D02*
D03*
Y917323D02*
D03*
Y952755D02*
D03*
X1137797Y988189D02*
D03*
Y881889D02*
D03*
Y846457D02*
D03*
Y917323D02*
D03*
Y952755D02*
D03*
X1086615Y988189D02*
D03*
Y881889D02*
D03*
Y846457D02*
D03*
Y917323D02*
D03*
Y952755D02*
D03*
X1035435D02*
D03*
Y917323D02*
D03*
Y846457D02*
D03*
Y881889D02*
D03*
Y1023621D02*
D03*
Y988189D02*
D03*
X909448Y606299D02*
D03*
X897639Y988189D02*
D03*
X795277D02*
D03*
X846457D02*
D03*
X795276Y1102363D02*
D03*
X846456D02*
D03*
X1421260Y708661D02*
D03*
Y661417D02*
D03*
X1444882Y708661D02*
D03*
X1468504Y685039D02*
D03*
X1492126Y661417D02*
D03*
X1444882Y661417D02*
D03*
X1421260Y685039D02*
D03*
X1444882D02*
D03*
X1468504Y661417D02*
D03*
X1492126Y685039D02*
D03*
Y708661D02*
D03*
X1468504Y708661D02*
D03*
X744094Y1102363D02*
D03*
Y1078741D02*
D03*
X744095Y988189D02*
D03*
Y881889D02*
D03*
Y846457D02*
D03*
Y917323D02*
D03*
Y952755D02*
D03*
X795277D02*
D03*
Y917323D02*
D03*
Y846457D02*
D03*
Y881889D02*
D03*
X795276Y1078741D02*
D03*
X846457Y952755D02*
D03*
Y917323D02*
D03*
Y846457D02*
D03*
Y881889D02*
D03*
X846456Y1078741D02*
D03*
X897639Y952755D02*
D03*
Y917323D02*
D03*
Y846457D02*
D03*
Y881889D02*
D03*
X948819Y988189D02*
D03*
Y881889D02*
D03*
Y846457D02*
D03*
Y917323D02*
D03*
Y952755D02*
D03*
X1452756Y1185039D02*
D03*
X1480316Y1161417D02*
D03*
X1507874Y1185039D02*
D03*
Y1161417D02*
D03*
X1480316Y1185039D02*
D03*
X1452756Y1161417D02*
D03*
X1507874Y1137795D02*
D03*
X1480316D02*
D03*
X1452756D02*
D03*
X1507874Y1070865D02*
D03*
X1397638Y1094489D02*
D03*
X1425196Y1070865D02*
D03*
X1045866Y677167D02*
D03*
X809646D02*
D03*
X391142D02*
D03*
X629922Y1094489D02*
D03*
X759842Y606299D02*
D03*
X291142D02*
D03*
X441142D02*
D03*
X1425196Y1260391D02*
D03*
X1452564Y1236769D02*
D03*
X1480124D02*
D03*
X1507682D02*
D03*
X1425196D02*
D03*
X1480124Y1260391D02*
D03*
Y1284013D02*
D03*
X1452564D02*
D03*
Y1260391D02*
D03*
X657481Y952755D02*
D03*
Y917323D02*
D03*
Y846457D02*
D03*
Y881889D02*
D03*
Y1023621D02*
D03*
Y988189D02*
D03*
X606301D02*
D03*
Y1023621D02*
D03*
Y881889D02*
D03*
Y846457D02*
D03*
Y917323D02*
D03*
Y952755D02*
D03*
X555118Y1102363D02*
D03*
Y1066929D02*
D03*
X555119Y988189D02*
D03*
Y1023621D02*
D03*
Y881889D02*
D03*
Y846457D02*
D03*
Y917323D02*
D03*
Y952755D02*
D03*
X503938Y1102363D02*
D03*
Y1066929D02*
D03*
X503939Y988189D02*
D03*
Y1023621D02*
D03*
Y881889D02*
D03*
Y846457D02*
D03*
Y917323D02*
D03*
Y952755D02*
D03*
X452757D02*
D03*
Y917323D02*
D03*
Y846457D02*
D03*
Y881889D02*
D03*
Y1023621D02*
D03*
Y988189D02*
D03*
X452756Y1066929D02*
D03*
Y1102363D02*
D03*
X326772Y929133D02*
D03*
X484252Y43307D02*
D03*
X1539370Y102363D02*
D03*
X1425196Y78741D02*
D03*
X673228Y606299D02*
D03*
X744094Y787401D02*
D03*
X503938Y740331D02*
D03*
X1381890Y606299D02*
D03*
X1425196Y102363D02*
D03*
X1519682D02*
D03*
X1332086Y189963D02*
D03*
Y237207D02*
D03*
Y55119D02*
D03*
Y213585D02*
D03*
Y102363D02*
D03*
Y260829D02*
D03*
Y78741D02*
D03*
Y125985D02*
D03*
X952756Y322835D02*
D03*
Y346457D02*
D03*
Y417323D02*
D03*
Y393701D02*
D03*
Y370079D02*
D03*
Y299213D02*
D03*
X952754Y139763D02*
D03*
X952756Y43307D02*
D03*
Y66929D02*
D03*
X484252Y90551D02*
D03*
Y66929D02*
D03*
Y114173D02*
D03*
Y137795D02*
D03*
Y208661D02*
D03*
Y232283D02*
D03*
Y255905D02*
D03*
Y185039D02*
D03*
Y161417D02*
D03*
X109254D02*
D03*
Y185039D02*
D03*
Y255905D02*
D03*
Y232283D02*
D03*
Y208661D02*
D03*
Y137795D02*
D03*
Y43307D02*
D03*
Y114173D02*
D03*
Y66929D02*
D03*
Y90551D02*
D03*
X1035434Y787575D02*
D03*
Y765921D02*
D03*
Y740331D02*
D03*
X744094Y740157D02*
D03*
Y765747D02*
D03*
X452756Y787575D02*
D03*
X1137796Y765921D02*
D03*
X1086614Y787749D02*
D03*
Y740505D02*
D03*
X1137796Y787575D02*
D03*
Y740331D02*
D03*
X1086614Y764127D02*
D03*
X846456Y765747D02*
D03*
X795276Y787575D02*
D03*
X846456Y787401D02*
D03*
Y740157D02*
D03*
X795276Y763953D02*
D03*
X1045866Y393701D02*
D03*
D61*
X337598Y677167D02*
D03*
X952756Y621287D02*
D03*
X812008Y517990D02*
D03*
X863190Y677165D02*
D03*
X389764Y1165354D02*
D03*
X757874Y687008D02*
D03*
X279528Y692913D02*
D03*
X208858Y606299D02*
D03*
X1643085Y273623D02*
D03*
X855314Y105315D02*
D03*
X812008D02*
D03*
X855314Y148621D02*
D03*
X812008D02*
D03*
X909646Y139763D02*
D03*
X1500128Y320867D02*
D03*
X1448818Y288385D02*
D03*
X1591326Y190083D02*
D03*
X1724409Y440944D02*
D03*
X1688976Y212598D02*
D03*
X354330Y1240157D02*
D03*
X1652362Y379921D02*
D03*
X1739707Y536283D02*
D03*
X1493864Y624471D02*
D03*
X1702362Y379921D02*
D03*
X1700788Y1063977D02*
D03*
X1692914Y1187599D02*
D03*
X1070866Y273623D02*
D03*
Y237207D02*
D03*
Y58073D02*
D03*
X598284Y543307D02*
D03*
Y273623D02*
D03*
X366142Y244095D02*
D03*
X232284Y1087401D02*
D03*
Y464986D02*
D03*
X220472Y736221D02*
D03*
X185039D02*
D03*
X232284Y937401D02*
D03*
X118110Y736221D02*
D03*
X82677D02*
D03*
X47244D02*
D03*
X70866Y887401D02*
D03*
Y937401D02*
D03*
X47244Y464567D02*
D03*
X109254Y677167D02*
D03*
X522884Y606299D02*
D03*
X58858D02*
D03*
X70866Y1087401D02*
D03*
X381890Y1027559D02*
D03*
X299212D02*
D03*
Y1003937D02*
D03*
Y1055117D02*
D03*
X326772Y1003937D02*
D03*
X354330Y1027559D02*
D03*
X503938Y1334645D02*
D03*
X354330Y1055119D02*
D03*
X326772D02*
D03*
X381890D02*
D03*
Y1003937D02*
D03*
X452756Y1279527D02*
D03*
Y1224409D02*
D03*
Y1307087D02*
D03*
Y1338579D02*
D03*
X1397638Y1070865D02*
D03*
X1425196Y1094489D02*
D03*
X1452756Y1070865D02*
D03*
Y1094489D02*
D03*
X1480316D02*
D03*
Y1070865D02*
D03*
X1507874Y1094489D02*
D03*
X299212Y929133D02*
D03*
X381890Y952755D02*
D03*
X354330Y929133D02*
D03*
X299212Y952755D02*
D03*
Y905511D02*
D03*
X326772Y952755D02*
D03*
Y905511D02*
D03*
X354330Y952755D02*
D03*
Y905511D02*
D03*
X381890D02*
D03*
Y929133D02*
D03*
D62*
X909646Y606299D02*
D03*
X859646D02*
D03*
X809646D02*
D03*
X759646D02*
D03*
X909646Y393701D02*
D03*
X859646D02*
D03*
X809646D02*
D03*
X759646D02*
D03*
X995866D02*
D03*
X1095866D02*
D03*
X1145866D02*
D03*
X995866Y606299D02*
D03*
X1045866D02*
D03*
X1095866D02*
D03*
X1045866Y393701D02*
D03*
X1145866Y606299D02*
D03*
X1232086D02*
D03*
X523426D02*
D03*
X58858D02*
D03*
X441142D02*
D03*
X1282086Y393701D02*
D03*
X341142D02*
D03*
X573426D02*
D03*
X108858D02*
D03*
X673426Y606299D02*
D03*
X623426D02*
D03*
X573426D02*
D03*
X673426Y393701D02*
D03*
X623426D02*
D03*
X523426D02*
D03*
X1382086Y606299D02*
D03*
X1332086D02*
D03*
X1282086D02*
D03*
X1382086Y393701D02*
D03*
X1332086D02*
D03*
X1232086D02*
D03*
X208858Y606299D02*
D03*
X158858D02*
D03*
X108858D02*
D03*
X208858Y393701D02*
D03*
X158858D02*
D03*
X58858D02*
D03*
X391142Y606299D02*
D03*
X341142D02*
D03*
X291142D02*
D03*
X441142Y393701D02*
D03*
X391142D02*
D03*
X291142D02*
D03*
D63*
X909448Y88583D02*
D03*
Y114173D02*
D03*
Y165355D02*
D03*
X757874D02*
D03*
Y139763D02*
D03*
Y88583D02*
D03*
X909448Y139763D02*
D03*
X757874Y114173D02*
D03*
D64*
X872048Y202755D02*
D03*
X846456D02*
D03*
X820866D02*
D03*
X795276D02*
D03*
Y51181D02*
D03*
X820866D02*
D03*
X846456D02*
D03*
X872048D02*
D03*
D65*
X833662Y126969D02*
D03*
D66*
X1645897Y415354D02*
D03*
Y440944D02*
D03*
Y466536D02*
D03*
X1523851Y492126D02*
D03*
Y466536D02*
D03*
Y440944D02*
D03*
Y415354D02*
D03*
X1645897Y492126D02*
D03*
D67*
X1584873Y453740D02*
D03*
D68*
X157480Y1155511D02*
D03*
Y801181D02*
D03*
X1614174Y856299D02*
D03*
Y1309055D02*
D03*
D69*
X322834Y929133D02*
D03*
Y1027559D02*
D03*
X1448818Y1181103D02*
D03*
Y1082677D02*
D03*
Y984251D02*
D03*
D70*
X1570867Y239173D02*
D03*
X1586615D02*
D03*
Y288385D02*
D03*
X1570867D02*
D03*
D71*
X1609251Y248031D02*
D03*
Y263779D02*
D03*
Y279527D02*
D03*
X1548229D02*
D03*
Y263779D02*
D03*
Y248031D02*
D03*
%TF.MD5,2d66c0a8c6f0c0e5fba42a3f03a6eae3*%
M02*
