%TF.GenerationSoftware,Altium Limited,Altium Designer,21.4.1 (30)*%
G04 Layer_Color=16711935*
%FSLAX26Y26*%
%MOIN*%
%TF.SameCoordinates,1A054405-282A-4FF3-8963-BB1B344CA64D*%
%TF.FilePolarity,Negative*%
%TF.FileFunction,Soldermask,Bot*%
%TF.Part,Single*%
G01*
G75*
%TA.AperFunction,SMDPad,CuDef*%
%ADD48R,0.033591X0.043433*%
%ADD49O,0.069024X0.031622*%
G04:AMPARAMS|DCode=50|XSize=37.134mil|YSize=74.929mil|CornerRadius=5.457mil|HoleSize=0mil|Usage=FLASHONLY|Rotation=90.000|XOffset=0mil|YOffset=0mil|HoleType=Round|Shape=RoundedRectangle|*
%AMROUNDEDRECTD50*
21,1,0.037134,0.064016,0,0,90.0*
21,1,0.026221,0.074929,0,0,90.0*
1,1,0.010913,0.032008,0.013110*
1,1,0.010913,0.032008,-0.013110*
1,1,0.010913,-0.032008,-0.013110*
1,1,0.010913,-0.032008,0.013110*
%
%ADD50ROUNDEDRECTD50*%
%ADD51R,0.055244X0.055244*%
%ADD52R,0.063118X0.122173*%
%ADD53R,0.122173X0.063118*%
%ADD54R,0.043433X0.033591*%
%ADD55R,0.045402X0.047370*%
%ADD56R,0.031622X0.047370*%
%ADD57R,0.086740X0.047370*%
G04:AMPARAMS|DCode=58|XSize=37.134mil|YSize=74.929mil|CornerRadius=5.457mil|HoleSize=0mil|Usage=FLASHONLY|Rotation=180.000|XOffset=0mil|YOffset=0mil|HoleType=Round|Shape=RoundedRectangle|*
%AMROUNDEDRECTD58*
21,1,0.037134,0.064016,0,0,180.0*
21,1,0.026221,0.074929,0,0,180.0*
1,1,0.010913,-0.013110,0.032008*
1,1,0.010913,0.013110,0.032008*
1,1,0.010913,0.013110,-0.032008*
1,1,0.010913,-0.013110,-0.032008*
%
%ADD58ROUNDEDRECTD58*%
%TA.AperFunction,ViaPad*%
%ADD59C,0.133984*%
%ADD60C,0.025716*%
%ADD61C,0.027685*%
D48*
X1046260Y677167D02*
D03*
X1103348D02*
D03*
X1042322Y606299D02*
D03*
X1099410D02*
D03*
X1278544D02*
D03*
X569882D02*
D03*
X105316D02*
D03*
X863188D02*
D03*
X394686D02*
D03*
X900592Y1212599D02*
D03*
X1331692Y677165D02*
D03*
X1274606D02*
D03*
X625000Y677167D02*
D03*
X682086D02*
D03*
X810040D02*
D03*
X867126D02*
D03*
X109254D02*
D03*
X166340D02*
D03*
X391732Y677165D02*
D03*
X448818D02*
D03*
X1335630Y606299D02*
D03*
X626968D02*
D03*
X806102D02*
D03*
X162402D02*
D03*
X337598D02*
D03*
X843506Y1212599D02*
D03*
D49*
X1692914Y711221D02*
D03*
Y761221D02*
D03*
Y661221D02*
D03*
Y811221D02*
D03*
X1480316D02*
D03*
Y761221D02*
D03*
Y661221D02*
D03*
Y711221D02*
D03*
Y1187599D02*
D03*
Y1137599D02*
D03*
Y1287599D02*
D03*
Y1237599D02*
D03*
X1692914Y1287599D02*
D03*
Y1137599D02*
D03*
Y1237599D02*
D03*
Y1187599D02*
D03*
D50*
X70866Y1137401D02*
D03*
Y1087401D02*
D03*
X232284Y1137401D02*
D03*
Y1087401D02*
D03*
X70866Y787401D02*
D03*
X232284D02*
D03*
Y837401D02*
D03*
Y887401D02*
D03*
X70866Y837401D02*
D03*
Y887401D02*
D03*
X232284Y937401D02*
D03*
X70866D02*
D03*
X232284Y987401D02*
D03*
Y1037401D02*
D03*
X70866Y987401D02*
D03*
Y1037401D02*
D03*
D51*
X1127952Y543307D02*
D03*
X541338D02*
D03*
X76772D02*
D03*
X1013780D02*
D03*
X655512D02*
D03*
X190944D02*
D03*
D52*
X1236220Y492125D02*
D03*
X763780D02*
D03*
X1236220Y358267D02*
D03*
Y224409D02*
D03*
X1141732Y90551D02*
D03*
X1236220D02*
D03*
X1141732Y358267D02*
D03*
X763780D02*
D03*
X669292D02*
D03*
X1141732Y224409D02*
D03*
X295276Y492125D02*
D03*
Y358267D02*
D03*
X204724D02*
D03*
Y224409D02*
D03*
X669292D02*
D03*
Y90551D02*
D03*
X295276Y224409D02*
D03*
Y90551D02*
D03*
X204724D02*
D03*
X1377952Y492125D02*
D03*
Y358267D02*
D03*
X1000000D02*
D03*
X905512Y492125D02*
D03*
Y358267D02*
D03*
X1377952Y224409D02*
D03*
Y90551D02*
D03*
X1000000Y224409D02*
D03*
Y90551D02*
D03*
X437008Y492125D02*
D03*
X527560Y358267D02*
D03*
X437008D02*
D03*
X62992D02*
D03*
X527560Y90551D02*
D03*
Y224409D02*
D03*
X437008D02*
D03*
X62992D02*
D03*
X437008Y90551D02*
D03*
X62992D02*
D03*
D53*
X1507874Y200787D02*
D03*
Y59055D02*
D03*
D54*
X1700788Y1006889D02*
D03*
X1641733D02*
D03*
X1700788Y941929D02*
D03*
X1641732D02*
D03*
X1582677Y1063977D02*
D03*
X1582678Y884843D02*
D03*
X1641732D02*
D03*
X1700788D02*
D03*
X1582678Y941929D02*
D03*
X1700788Y1063977D02*
D03*
X1641733D02*
D03*
X1582677Y1006889D02*
D03*
D55*
X208662Y1248031D02*
D03*
Y1307087D02*
D03*
X271654D02*
D03*
Y1248031D02*
D03*
D56*
X909448Y1149607D02*
D03*
X834646D02*
D03*
X872048D02*
D03*
X909448Y1043307D02*
D03*
X872048D02*
D03*
X834646D02*
D03*
D57*
X354330Y1318897D02*
D03*
Y1240157D02*
D03*
D58*
X1702362Y379921D02*
D03*
Y541339D02*
D03*
X1652362D02*
D03*
X1602362D02*
D03*
X1652362Y379921D02*
D03*
X1602362D02*
D03*
X1552362Y541339D02*
D03*
X1502362D02*
D03*
X1552362Y379921D02*
D03*
X1502362D02*
D03*
D59*
X1338582Y1291339D02*
D03*
X86614D02*
D03*
X354330Y771653D02*
D03*
X1685040Y86615D02*
D03*
D60*
X598425Y645669D02*
D03*
X1303150Y476378D02*
D03*
X1331692Y677165D02*
D03*
X1432295Y606299D02*
D03*
X909448Y1043307D02*
D03*
X1103348Y677167D02*
D03*
X1282086Y1224409D02*
D03*
X452756Y765921D02*
D03*
Y740331D02*
D03*
X757874Y114173D02*
D03*
X354330Y1318897D02*
D03*
X1692914Y661417D02*
D03*
X795276Y740331D02*
D03*
X1232284Y606299D02*
D03*
X1484252Y811024D02*
D03*
X1437008Y763779D02*
D03*
X1413386D02*
D03*
X1460630Y787750D02*
D03*
X1437008Y787402D02*
D03*
Y811024D02*
D03*
X1413386D02*
D03*
Y787402D02*
D03*
X1460630Y811371D02*
D03*
X1484252Y763779D02*
D03*
Y787402D02*
D03*
X1460630Y764128D02*
D03*
X1623114Y303149D02*
D03*
X1507874Y244094D02*
D03*
X872048Y51181D02*
D03*
X952756Y90551D02*
D03*
X1688976Y247046D02*
D03*
X1129922Y543307D02*
D03*
X1177165Y549213D02*
D03*
X629922Y763953D02*
D03*
X555118Y787575D02*
D03*
Y765921D02*
D03*
Y740331D02*
D03*
X503938Y763953D02*
D03*
Y787575D02*
D03*
X1522406Y139763D02*
D03*
X1465320D02*
D03*
X1643085Y200787D02*
D03*
X1507874D02*
D03*
X108858Y393701D02*
D03*
X341142D02*
D03*
X573426D02*
D03*
X1282086D02*
D03*
X208662Y1248031D02*
D03*
X232284Y887401D02*
D03*
X1452983Y410711D02*
D03*
X1602362Y379921D02*
D03*
X1523851Y440944D02*
D03*
X795276Y202755D02*
D03*
X806102Y259843D02*
D03*
X863190D02*
D03*
X1692914Y711221D02*
D03*
X1452983Y353625D02*
D03*
X1607511Y630906D02*
D03*
X1746203Y1287599D02*
D03*
X1692914Y1137599D02*
D03*
X1539370Y974409D02*
D03*
X1582678D02*
D03*
X1671260D02*
D03*
X1145670Y606299D02*
D03*
X996064D02*
D03*
X809646Y393701D02*
D03*
X1212796Y763953D02*
D03*
X921456D02*
D03*
X326772Y1027559D02*
D03*
X354330Y1003937D02*
D03*
X250492Y255905D02*
D03*
X717008Y393371D02*
D03*
X452756Y1251969D02*
D03*
X1188976Y101377D02*
D03*
Y124999D02*
D03*
X716536Y66929D02*
D03*
Y41337D02*
D03*
Y114173D02*
D03*
Y161417D02*
D03*
Y185039D02*
D03*
Y208661D02*
D03*
Y346457D02*
D03*
Y370079D02*
D03*
Y320867D02*
D03*
X1188976Y259843D02*
D03*
Y322835D02*
D03*
Y393701D02*
D03*
Y370079D02*
D03*
Y346457D02*
D03*
Y236221D02*
D03*
Y55119D02*
D03*
Y212599D02*
D03*
Y78741D02*
D03*
Y188977D02*
D03*
X250492Y90551D02*
D03*
Y66929D02*
D03*
Y114173D02*
D03*
Y43307D02*
D03*
Y137795D02*
D03*
Y208661D02*
D03*
Y232283D02*
D03*
Y185039D02*
D03*
Y161417D02*
D03*
X1240158Y1224409D02*
D03*
Y1279527D02*
D03*
Y1307087D02*
D03*
Y1334645D02*
D03*
Y1251969D02*
D03*
X795276D02*
D03*
X846456D02*
D03*
X897638D02*
D03*
X1137796Y1334645D02*
D03*
X1035434D02*
D03*
X1086614D02*
D03*
X1188976D02*
D03*
X606300D02*
D03*
X657480D02*
D03*
X555118D02*
D03*
X657480Y1279527D02*
D03*
Y1307087D02*
D03*
Y1224409D02*
D03*
Y1251969D02*
D03*
X1035434Y1279527D02*
D03*
Y1307087D02*
D03*
Y1224409D02*
D03*
Y1251969D02*
D03*
X744094Y1279527D02*
D03*
Y1307087D02*
D03*
Y1224409D02*
D03*
Y1251969D02*
D03*
X948820D02*
D03*
Y1224409D02*
D03*
Y1307087D02*
D03*
Y1279527D02*
D03*
X846456Y1334645D02*
D03*
X744094D02*
D03*
X795276D02*
D03*
X948820D02*
D03*
X897638D02*
D03*
Y1307087D02*
D03*
Y1279527D02*
D03*
X846456D02*
D03*
Y1307087D02*
D03*
X795276D02*
D03*
Y1279527D02*
D03*
X1137796Y1224409D02*
D03*
X1188976D02*
D03*
X1086614D02*
D03*
Y1251969D02*
D03*
X1137796D02*
D03*
X1188976D02*
D03*
X1086614Y1279527D02*
D03*
X1137796Y1307087D02*
D03*
Y1279527D02*
D03*
X1188976D02*
D03*
Y1307087D02*
D03*
X1086614D02*
D03*
X555118Y1224409D02*
D03*
X606300D02*
D03*
X503938D02*
D03*
Y1251969D02*
D03*
X555118D02*
D03*
X606300D02*
D03*
X503938Y1279527D02*
D03*
Y1307087D02*
D03*
X555118D02*
D03*
Y1279527D02*
D03*
X606300D02*
D03*
Y1307087D02*
D03*
X1240159Y952755D02*
D03*
Y917323D02*
D03*
Y846457D02*
D03*
Y881889D02*
D03*
Y1023621D02*
D03*
Y988189D02*
D03*
X1188977D02*
D03*
Y881889D02*
D03*
Y846457D02*
D03*
Y917323D02*
D03*
Y952755D02*
D03*
X1137797Y988189D02*
D03*
Y881889D02*
D03*
Y846457D02*
D03*
Y917323D02*
D03*
Y952755D02*
D03*
X1086615Y988189D02*
D03*
Y881889D02*
D03*
Y846457D02*
D03*
Y917323D02*
D03*
Y952755D02*
D03*
X1035435D02*
D03*
Y917323D02*
D03*
Y846457D02*
D03*
Y881889D02*
D03*
Y1023621D02*
D03*
Y988189D02*
D03*
X909448Y606299D02*
D03*
X897639Y988189D02*
D03*
X795277D02*
D03*
X846457D02*
D03*
X795276Y1102363D02*
D03*
X846456D02*
D03*
X1421260Y708661D02*
D03*
Y661417D02*
D03*
X1444882Y708661D02*
D03*
X1468504Y685039D02*
D03*
X1492126Y661417D02*
D03*
X1444882Y661417D02*
D03*
X1421260Y685039D02*
D03*
X1444882D02*
D03*
X1468504Y661417D02*
D03*
X1492126Y685039D02*
D03*
Y708661D02*
D03*
X1468504Y708661D02*
D03*
X744094Y1102363D02*
D03*
Y1078741D02*
D03*
X744095Y988189D02*
D03*
Y881889D02*
D03*
Y846457D02*
D03*
Y917323D02*
D03*
Y952755D02*
D03*
X795277D02*
D03*
Y917323D02*
D03*
Y846457D02*
D03*
Y881889D02*
D03*
X795276Y1078741D02*
D03*
X846457Y952755D02*
D03*
Y917323D02*
D03*
Y846457D02*
D03*
Y881889D02*
D03*
X846456Y1078741D02*
D03*
X897639Y952755D02*
D03*
Y917323D02*
D03*
Y846457D02*
D03*
Y881889D02*
D03*
X948819Y988189D02*
D03*
Y881889D02*
D03*
Y846457D02*
D03*
Y917323D02*
D03*
Y952755D02*
D03*
X1452756Y1185039D02*
D03*
X1480316Y1161417D02*
D03*
X1507874Y1185039D02*
D03*
Y1161417D02*
D03*
X1480316Y1185039D02*
D03*
X1452756Y1161417D02*
D03*
X1507874Y1137795D02*
D03*
X1480316D02*
D03*
X1452756D02*
D03*
X1507874Y1070865D02*
D03*
X1397638Y1094489D02*
D03*
X1425196Y1070865D02*
D03*
X1045866Y677167D02*
D03*
X809646D02*
D03*
X391142D02*
D03*
X629922Y1094489D02*
D03*
X759842Y606299D02*
D03*
X291142D02*
D03*
X441142D02*
D03*
X1425196Y1260391D02*
D03*
X1452564Y1236769D02*
D03*
X1480124D02*
D03*
X1507682D02*
D03*
X1425196D02*
D03*
X1480124Y1260391D02*
D03*
Y1284013D02*
D03*
X1452564D02*
D03*
Y1260391D02*
D03*
X657481Y952755D02*
D03*
Y917323D02*
D03*
Y846457D02*
D03*
Y881889D02*
D03*
Y1023621D02*
D03*
Y988189D02*
D03*
X606301D02*
D03*
Y1023621D02*
D03*
Y881889D02*
D03*
Y846457D02*
D03*
Y917323D02*
D03*
Y952755D02*
D03*
X555118Y1102363D02*
D03*
Y1066929D02*
D03*
X555119Y988189D02*
D03*
Y1023621D02*
D03*
Y881889D02*
D03*
Y846457D02*
D03*
Y917323D02*
D03*
Y952755D02*
D03*
X503938Y1102363D02*
D03*
Y1066929D02*
D03*
X503939Y988189D02*
D03*
Y1023621D02*
D03*
Y881889D02*
D03*
Y846457D02*
D03*
Y917323D02*
D03*
Y952755D02*
D03*
X452757D02*
D03*
Y917323D02*
D03*
Y846457D02*
D03*
Y881889D02*
D03*
Y1023621D02*
D03*
Y988189D02*
D03*
X452756Y1066929D02*
D03*
Y1102363D02*
D03*
X326772Y929133D02*
D03*
X484252Y43307D02*
D03*
X1539370Y102363D02*
D03*
X1425196Y78741D02*
D03*
X673228Y606299D02*
D03*
X744094Y787401D02*
D03*
X503938Y740331D02*
D03*
X1381890Y606299D02*
D03*
X1425196Y102363D02*
D03*
X1519682D02*
D03*
X1332086Y189963D02*
D03*
Y237207D02*
D03*
Y55119D02*
D03*
Y213585D02*
D03*
Y102363D02*
D03*
Y260829D02*
D03*
Y78741D02*
D03*
Y125985D02*
D03*
X952756Y322835D02*
D03*
Y346457D02*
D03*
Y417323D02*
D03*
Y393701D02*
D03*
Y370079D02*
D03*
Y299213D02*
D03*
X952754Y139763D02*
D03*
X952756Y43307D02*
D03*
Y66929D02*
D03*
X484252Y90551D02*
D03*
Y66929D02*
D03*
Y114173D02*
D03*
Y137795D02*
D03*
Y208661D02*
D03*
Y232283D02*
D03*
Y255905D02*
D03*
Y185039D02*
D03*
Y161417D02*
D03*
X109254D02*
D03*
Y185039D02*
D03*
Y255905D02*
D03*
Y232283D02*
D03*
Y208661D02*
D03*
Y137795D02*
D03*
Y43307D02*
D03*
Y114173D02*
D03*
Y66929D02*
D03*
Y90551D02*
D03*
X1035434Y787575D02*
D03*
Y765921D02*
D03*
Y740331D02*
D03*
X744094Y740157D02*
D03*
Y765747D02*
D03*
X452756Y787575D02*
D03*
X1137796Y765921D02*
D03*
X1086614Y787749D02*
D03*
Y740505D02*
D03*
X1137796Y787575D02*
D03*
Y740331D02*
D03*
X1086614Y764127D02*
D03*
X846456Y765747D02*
D03*
X795276Y787575D02*
D03*
X846456Y787401D02*
D03*
Y740157D02*
D03*
X795276Y763953D02*
D03*
X1045866Y393701D02*
D03*
D61*
X337598Y677167D02*
D03*
X952756Y621287D02*
D03*
X812008Y517990D02*
D03*
X863190Y677165D02*
D03*
X389764Y1165354D02*
D03*
X757874Y687008D02*
D03*
X279528Y692913D02*
D03*
X208858Y606299D02*
D03*
X1643085Y273623D02*
D03*
X855314Y105315D02*
D03*
X812008D02*
D03*
X855314Y148621D02*
D03*
X812008D02*
D03*
X909646Y139763D02*
D03*
X1500128Y320867D02*
D03*
X1448818Y288385D02*
D03*
X1591326Y190083D02*
D03*
X1724409Y440944D02*
D03*
X1688976Y212598D02*
D03*
X354330Y1240157D02*
D03*
X1652362Y379921D02*
D03*
X1739707Y536283D02*
D03*
X1493864Y624471D02*
D03*
X1702362Y379921D02*
D03*
X1700788Y1063977D02*
D03*
X1692914Y1187599D02*
D03*
X1070866Y273623D02*
D03*
Y237207D02*
D03*
Y58073D02*
D03*
X598284Y543307D02*
D03*
Y273623D02*
D03*
X366142Y244095D02*
D03*
X232284Y1087401D02*
D03*
Y464986D02*
D03*
X220472Y736221D02*
D03*
X185039D02*
D03*
X232284Y937401D02*
D03*
X118110Y736221D02*
D03*
X82677D02*
D03*
X47244D02*
D03*
X70866Y887401D02*
D03*
Y937401D02*
D03*
X47244Y464567D02*
D03*
X109254Y677167D02*
D03*
X522884Y606299D02*
D03*
X58858D02*
D03*
X70866Y1087401D02*
D03*
X381890Y1027559D02*
D03*
X299212D02*
D03*
Y1003937D02*
D03*
Y1055117D02*
D03*
X326772Y1003937D02*
D03*
X354330Y1027559D02*
D03*
X503938Y1334645D02*
D03*
X354330Y1055119D02*
D03*
X326772D02*
D03*
X381890D02*
D03*
Y1003937D02*
D03*
X452756Y1279527D02*
D03*
Y1224409D02*
D03*
Y1307087D02*
D03*
Y1338579D02*
D03*
X1397638Y1070865D02*
D03*
X1425196Y1094489D02*
D03*
X1452756Y1070865D02*
D03*
Y1094489D02*
D03*
X1480316D02*
D03*
Y1070865D02*
D03*
X1507874Y1094489D02*
D03*
X299212Y929133D02*
D03*
X381890Y952755D02*
D03*
X354330Y929133D02*
D03*
X299212Y952755D02*
D03*
Y905511D02*
D03*
X326772Y952755D02*
D03*
Y905511D02*
D03*
X354330Y952755D02*
D03*
Y905511D02*
D03*
X381890D02*
D03*
Y929133D02*
D03*
%TF.MD5,2e10b8f69fcafd3b4489f072859af1b7*%
M02*
